<?xml version="1.0"?>
<svg xmlns="http://www.w3.org/2000/svg" id="Layer_1" enable-background="new 0 0 128 128" height="512" viewBox="0 0 128 128" width="512" class=""><g><g><g fill="#e6e7e8"><path d="m85.926 75.373c1.206 1.206 3.308 1.206 4.513 0l5.564-5.563c1.245-1.244 1.245-3.269 0-4.513l-3.179-3.179c1.868-2.983 3.208-6.214 3.994-9.624h4.488c1.76 0 3.191-1.432 3.191-3.191v-7.868c0-1.76-1.432-3.191-3.191-3.191h-4.488c-.785-3.411-2.126-6.641-3.994-9.624l3.179-3.179c.603-.603.935-1.404.935-2.257s-.332-1.654-.935-2.256l-5.563-5.564c-1.205-1.206-3.308-1.206-4.513 0l-3.179 3.179c-2.983-1.868-6.213-3.209-9.624-3.994v-4.489c0-1.76-1.432-3.191-3.191-3.191h-7.868c-1.76 0-3.191 1.432-3.191 3.191v4.489c-3.411.785-6.641 2.125-9.624 3.994l-3.179-3.179c-1.206-1.206-3.308-1.206-4.513 0l-5.564 5.563c-.603.603-.935 1.404-.935 2.257s.332 1.654.935 2.256l3.179 3.179c-1.868 2.983-3.209 6.213-3.994 9.624h-4.489c-1.76 0-3.191 1.432-3.191 3.191v7.868c0 1.76 1.432 3.191 3.191 3.191h4.488c.785 3.411 2.126 6.641 3.994 9.624l-3.179 3.179c-1.245 1.244-1.245 3.269 0 4.513l5.563 5.563c1.206 1.206 3.308 1.206 4.513 0l3.179-3.179c2.983 1.868 6.214 3.208 9.624 3.994v4.489c0 1.759 1.432 3.191 3.191 3.191h7.868c1.76 0 3.191-1.432 3.191-3.191v-4.489c3.41-.785 6.641-2.125 9.624-3.994z" data-original="#E6E7E8"/><path d="m36.446 74.45c-1.842-1.823-4.841-1.823-6.683 0-1.842 1.821-1.899 4.731-.13 6.624l6.123 6.551c.155.166.153.424-.006.587-.108.111-.235.128-.305.128-.083-.006-.201-.017-.311-.135l-13.563-14.561c-.89-.946-1.452-2.125-1.625-3.412l-1.895-14.009c-.354-2.616-2.612-4.589-5.253-4.589-1.476 0-2.847.592-3.858 1.667-1.012 1.075-1.521 2.478-1.426 4.019l2.794 21.715c.344 2.671 1.399 5.205 3.054 7.325 4.141 5.309 12.693 16.146 16.178 20.559.903 1.145 1.39 2.519 1.408 3.976.039 3.252.05 7.056.053 11.008.001 1.782 1.452 3.231 3.232 3.231h14.901c1.777 0 3.228-1.446 3.232-3.223l.072-25.196c0-4.096-1.67-8.096-4.582-10.977z" data-original="#E6E7E8"/><path d="m123.056 53.299c-1.012-1.075-2.383-1.667-3.859-1.667-2.64 0-4.898 1.973-5.252 4.589l-1.895 14.01c-.173 1.286-.736 2.466-1.629 3.415l-13.56 14.558c-.108.116-.239.135-.307.135-.063-.006-.199-.015-.31-.129-.158-.163-.161-.42-.005-.587l6.123-6.551c1.769-1.893 1.712-4.802-.13-6.624-1.843-1.822-4.841-1.822-6.683 0l-11.41 11.286c-2.912 2.88-4.582 6.881-4.582 10.979l.072 25.193c.005 1.777 1.455 3.223 3.232 3.223h14.901c1.781 0 3.231-1.45 3.232-3.231.003-3.952.014-7.755.053-11.007.018-1.457.504-2.832 1.408-3.976 3.485-4.413 12.037-15.25 16.178-20.559 1.654-2.121 2.71-4.654 3.054-7.325l2.8-21.783c.09-1.471-.419-2.874-1.431-3.949z" data-original="#E6E7E8"/></g><g><g><path d="m99.497 45.302v-7.869c0-1.21-.981-2.191-2.191-2.191h-5.295c-.794-3.91-2.336-7.546-4.464-10.761l3.749-3.749c.856-.856.856-2.243 0-3.099l-5.564-5.564c-.856-.856-2.243-.856-3.099 0l-3.749 3.75c-3.214-2.129-6.851-3.671-10.761-4.465v-5.295c0-1.21-.981-2.191-2.191-2.191h-7.868c-1.21 0-2.191.981-2.191 2.191v5.295c-3.91.794-7.546 2.336-10.761 4.465l-3.749-3.75c-.856-.856-2.243-.856-3.099 0l-5.564 5.564c-.856.856-.856 2.243 0 3.099l3.749 3.749c-2.129 3.214-3.671 6.851-4.464 10.761h-5.295c-1.21 0-2.191.981-2.191 2.191v7.869c0 1.21.981 2.191 2.191 2.191h5.295c.794 3.91 2.336 7.546 4.464 10.761l-3.749 3.749c-.856.856-.856 2.243 0 3.099l5.564 5.564c.856.856 2.243.856 3.099 0l3.749-3.749c3.214 2.129 6.851 3.671 10.761 4.465v5.295c0 1.21.981 2.191 2.191 2.191h7.868c1.21 0 2.191-.981 2.191-2.191v-5.295c3.91-.794 7.546-2.336 10.761-4.465l3.749 3.749c.856.856 2.243.856 3.099 0l5.564-5.564c.856-.856.856-2.243 0-3.099l-3.749-3.749c2.129-3.214 3.671-6.851 4.464-10.761h5.295c1.21 0 2.191-.981 2.191-2.191z" fill="#0089ef" data-original="#0089EF" class="active-path" style="fill:#007592" data-old_color="#0089ef"/><g><circle cx="61.997" cy="41.368" fill="#6dc9f7" r="19.641" data-original="#6DC9F7"/></g><path d="m61.997 58.009c-10.341 0-18.796-7.997-19.565-18.141-.038.497-.076.994-.076 1.5 0 10.847 8.793 19.641 19.641 19.641s19.641-8.793 19.641-19.641c0-.506-.038-1.003-.076-1.5-.768 10.144-9.224 18.141-19.565 18.141z" fill="#fff" data-original="#FFF"/></g><g><path d="m28 117.9c-.003-3.956-.014-7.763-.053-11.019-.02-1.668-.589-3.275-1.623-4.584-3.494-4.425-12.012-15.217-16.174-20.554-1.546-1.982-2.53-4.344-2.851-6.837l-2.794-21.715c-.148-2.472 1.816-4.558 4.293-4.558 2.152 0 3.973 1.591 4.262 3.724l1.895 14.009c.201 1.485.861 2.871 1.888 3.963l13.56 14.557c.555.596 1.497.606 2.065.022.53-.545.539-1.411.019-1.967l-6.123-6.551c-1.387-1.484-1.341-3.802.103-5.23 1.462-1.446 3.815-1.446 5.277 0l11.41 11.286c2.742 2.712 4.285 6.409 4.285 10.265l-.071 25.193c-.003 1.23-1.002 2.226-2.232 2.226h-14.902c-1.234.002-2.233-.998-2.234-2.23z" fill="#ffd7e5" data-original="#FFD7E5"/><g><path d="m95.995 117.9c.003-3.956.014-7.763.053-11.019.02-1.668.589-3.275 1.623-4.584 3.494-4.425 12.012-15.217 16.174-20.554 1.546-1.982 2.53-4.344 2.851-6.837l2.794-21.715c.148-2.472-1.816-4.558-4.293-4.558-2.152 0-3.973 1.591-4.262 3.724l-1.895 14.009c-.201 1.485-.861 2.871-1.888 3.963l-13.56 14.557c-.555.596-1.497.606-2.065.022-.53-.545-.539-1.411-.019-1.967l6.123-6.551c1.387-1.484 1.341-3.802-.103-5.23-1.462-1.446-3.815-1.446-5.277 0l-11.41 11.286c-2.742 2.712-4.285 6.409-4.285 10.265l.072 25.193c.003 1.23 1.002 2.226 2.232 2.226h14.902c1.233.002 2.232-.998 2.233-2.23z" fill="#ffd7e5" data-original="#FFD7E5"/></g></g><g><path d="m66.338 32.057c-1.244.823-2.735 1.305-4.34 1.305s-3.097-.482-4.341-1.305c-4.643.865-8.16 4.93-8.16 9.823v4.802c0 1.105.895 2 2 2h21c1.105 0 2-.895 2-2v-4.802c0-4.893-3.516-8.958-8.159-9.823z" fill="#0089ef" data-original="#0089EF" class="active-path" style="fill:#007592" data-old_color="#0089ef"/><g><g><ellipse cx="61.998" cy="25.542" fill="#fff" rx="7.853" ry="7.82" data-original="#FFF"/><g fill="#3a2c60"><path d="m81.926 71.373c1.244 1.244 3.269 1.244 4.513 0l5.564-5.564c1.245-1.244 1.245-3.269 0-4.513l-3.179-3.179c1.868-2.983 3.209-6.214 3.994-9.625h4.488c1.76 0 3.191-1.432 3.191-3.191v-7.869c0-1.76-1.432-3.191-3.191-3.191h-4.489c-.785-3.411-2.125-6.641-3.994-9.624l3.179-3.179c.603-.603.935-1.404.935-2.257s-.332-1.654-.935-2.256l-5.564-5.564c-1.244-1.244-3.269-1.244-4.513 0l-3.179 3.179c-2.982-1.868-6.212-3.208-9.624-3.994v-4.487c0-1.759-1.432-3.191-3.191-3.191h-7.868c-1.76 0-3.191 1.432-3.191 3.191v4.489c-3.411.785-6.642 2.125-9.624 3.994l-3.179-3.18c-1.245-1.243-3.27-1.244-4.513 0l-5.563 5.563c-.603.603-.935 1.404-.935 2.257s.332 1.654.935 2.256l3.179 3.179c-1.868 2.983-3.208 6.214-3.994 9.624h-4.489c-1.759 0-3.191 1.432-3.191 3.191v7.869c0 1.759 1.432 3.191 3.191 3.191h4.489c.785 3.41 2.125 6.641 3.994 9.625l-3.179 3.179c-1.245 1.244-1.245 3.269 0 4.513l5.563 5.564c1.244 1.243 3.269 1.243 4.513 0l3.179-3.179c2.983 1.869 6.214 3.209 9.624 3.994v4.489c0 1.759 1.432 3.191 3.191 3.191h7.868c1.76 0 3.191-1.432 3.191-3.191v-4.489c3.411-.785 6.641-2.125 9.624-3.994zm-14.002-.972c-.466.095-.801.504-.801.98v5.295c0 .657-.535 1.191-1.191 1.191h-7.868c-.657 0-1.191-.534-1.191-1.191v-5.295c0-.476-.335-.885-.801-.98-3.719-.755-7.221-2.208-10.407-4.318-.169-.112-.361-.167-.552-.167-.258 0-.514.1-.708.293l-3.75 3.749c-.465.465-1.22.464-1.685 0l-5.563-5.564c-.464-.465-.464-1.22 0-1.685l3.749-3.749c.336-.336.389-.863.127-1.259-2.11-3.187-3.563-6.689-4.318-10.408-.095-.466-.504-.801-.98-.801h-5.295c-.657 0-1.191-.534-1.191-1.191v-7.869c0-.657.534-1.191 1.191-1.191h5.295c.476 0 .885-.335.98-.801.755-3.72 2.208-7.221 4.318-10.408.262-.396.209-.923-.127-1.259l-3.749-3.75c-.225-.225-.349-.523-.349-.842s.124-.617.349-.842l5.563-5.563c.465-.465 1.22-.464 1.685 0l3.75 3.75c.336.337.863.39 1.259.126 3.186-2.11 6.687-3.563 10.408-4.318.466-.095.801-.504.801-.98v-5.295c0-.657.535-1.191 1.191-1.191h7.868c.657 0 1.191.534 1.191 1.191v5.295c0 .476.335.885.801.98 3.721.755 7.222 2.208 10.408 4.318.397.264.923.21 1.259-.126l3.75-3.75c.465-.464 1.22-.464 1.685 0l5.564 5.564c.225.225.349.523.349.842s-.124.617-.349.842l-3.75 3.75c-.336.336-.389.863-.126 1.259 2.11 3.187 3.563 6.688 4.318 10.407.095.466.504.801.98.801h5.295c.657 0 1.191.535 1.191 1.191v7.869c0 .657-.535 1.191-1.191 1.191h-5.295c-.476 0-.885.335-.98.801-.755 3.72-2.208 7.221-4.319 10.408-.262.396-.209.923.127 1.259l3.75 3.749c.464.465.464 1.22 0 1.685l-5.564 5.564c-.465.464-1.22.464-1.685 0l-3.75-3.75c-.336-.336-.863-.39-1.259-.126-3.187 2.112-6.688 3.564-10.408 4.319z" data-original="#3A2C60" class="" style="fill:#3A2C60"/><path d="m70.298 22.502c-1.247-3.368-4.492-5.78-8.3-5.78s-7.053 2.412-8.3 5.78c-7.254 3.202-12.34 10.44-12.34 18.866 0 11.381 9.259 20.641 20.641 20.641s20.641-9.259 20.641-20.641c-.002-8.425-5.088-15.664-12.342-18.866zm-8.3-3.779c3.779 0 6.854 3.06 6.854 6.82s-3.075 6.82-6.854 6.82-6.854-3.06-6.854-6.82 3.075-6.82 6.854-6.82zm-4.512 14.394c1.323.785 2.863 1.245 4.512 1.245s3.188-.46 4.512-1.245c3.996.916 6.988 4.493 6.988 8.763v4.801c0 .551-.449 1-1 1h-21c-.551 0-1-.449-1-1v-4.801c0-4.269 2.992-7.847 6.988-8.763zm4.512 26.892c-10.278 0-18.641-8.362-18.641-18.641 0-7.083 3.982-13.238 9.816-16.39-.012.188-.029.374-.029.565 0 2.354.936 4.491 2.451 6.074-4.141 1.578-7.097 5.575-7.097 10.264v4.801c0 1.654 1.346 3 3 3h21c1.654 0 3-1.346 3-3v-4.801c0-4.689-2.956-8.686-7.097-10.264 1.514-1.583 2.451-3.72 2.451-6.074 0-.191-.017-.377-.029-.564 5.834 3.152 9.816 9.307 9.816 16.39-.001 10.277-8.363 18.64-18.641 18.64z" data-original="#3A2C60" class="" style="fill:#3A2C60"/><path d="m32.446 70.45c-1.842-1.822-4.84-1.822-6.683 0-1.842 1.821-1.9 4.731-.13 6.624l6.123 6.551c.155.166.152.423-.005.586-.108.112-.236.129-.305.129-.079-.013-.201-.017-.311-.135l-13.564-14.562c-.89-.945-1.452-2.125-1.626-3.411l-1.895-14.01c-.354-2.617-2.612-4.59-5.253-4.59-1.476 0-2.846.592-3.858 1.667s-1.521 2.478-1.426 4.019l2.794 21.715c.344 2.671 1.399 5.204 3.054 7.325 4.352 5.579 13.483 17.146 16.178 20.559.903 1.145 1.39 2.52 1.407 3.977.039 3.251.05 7.055.053 11.007.001 1.782 1.452 3.231 3.232 3.231h14.901c1.777 0 3.228-1.446 3.232-3.223l.071-25.196c0-4.096-1.67-8.096-4.582-10.976zm13.92 47.453c-.002.678-.555 1.229-1.232 1.229h-14.902c-.679 0-1.232-.553-1.232-1.233-.003-3.96-.014-7.771-.053-11.029-.022-1.875-.675-3.719-1.838-5.192-2.694-3.412-11.822-14.975-16.17-20.55-1.434-1.838-2.35-4.034-2.647-6.35l-2.789-21.647c-.055-.917.262-1.792.892-2.46.63-.669 1.483-1.038 2.402-1.038 1.644 0 3.05 1.229 3.271 2.858l1.895 14.01c.23 1.702.974 3.263 2.147 4.51l13.56 14.557c.451.484 1.088.765 1.749.772.681.008 1.304-.261 1.765-.735.903-.93.917-2.399.032-3.346l-6.123-6.551c-1.024-1.097-.991-2.782.076-3.836 1.067-1.055 2.803-1.055 3.871 0l11.41 11.287c2.534 2.507 3.988 5.989 3.988 9.551z" data-original="#3A2C60" class="" style="fill:#3A2C60"/><path d="m76.613 111.298h.003c.552-.001.999-.451.997-1.003l-.018-6.375c-.001-.551-.449-.997-1-.997-.001 0-.002 0-.003 0-.552.001-.999.451-.997 1.003l.018 6.375c.001.551.449.997 1 .997z" data-original="#3A2C60" class="" style="fill:#3A2C60"/><path d="m119.055 49.299c-1.012-1.074-2.382-1.666-3.858-1.666-2.641 0-4.899 1.974-5.252 4.59l-1.895 14.01c-.173 1.286-.736 2.465-1.629 3.415l-13.561 14.556c-.108.116-.238.135-.306.135-.064.01-.199-.015-.31-.129-.158-.163-.161-.42-.006-.586l6.123-6.55c1.77-1.893 1.712-4.802-.13-6.624s-4.841-1.823-6.683 0l-11.41 11.287c-2.912 2.88-4.582 6.88-4.582 10.98l.027 6.71c.002.551.45.996 1 .996h.004c.552-.002.999-.452.996-1.004l-.027-6.707c0-3.565 1.454-7.047 3.988-9.554l11.41-11.287c1.067-1.056 2.803-1.056 3.871 0 1.067 1.055 1.1 2.74.075 3.836l-6.124 6.551c-.884.947-.87 2.417.033 3.346.46.475 1.118.737 1.765.735.661-.007 1.298-.289 1.749-.772l13.557-14.554c1.177-1.251 1.921-2.813 2.151-4.513l1.895-14.01c.22-1.629 1.626-2.858 3.27-2.858.919 0 1.772.369 2.402 1.038s.947 1.543.899 2.393l-2.794 21.715c-.298 2.316-1.213 4.512-2.647 6.35-3.965 5.084-11.833 15.057-16.17 20.549-1.163 1.472-1.816 3.316-1.838 5.192-.039 3.258-.05 7.069-.053 11.029 0 .68-.553 1.233-1.232 1.233h-14.902c-.678 0-1.23-.551-1.232-1.229l-.009-3.233c-.001-.551-.449-.997-1-.997-.001 0-.002 0-.003 0-.552.001-.999.451-.997 1.003l.009 3.233c.005 1.777 1.455 3.223 3.232 3.223h14.901c1.781 0 3.231-1.45 3.232-3.231.003-3.952.014-7.755.053-11.007.018-1.458.504-2.833 1.408-3.977 4.339-5.494 12.21-15.471 16.178-20.559 1.654-2.121 2.71-4.654 3.054-7.325l2.8-21.783c.089-1.472-.42-2.876-1.432-3.95z" data-original="#3A2C60" class="" style="fill:#3A2C60"/></g></g></g></g></g></g></g> </svg>
