<?xml version="1.0"?>
<svg xmlns="http://www.w3.org/2000/svg" xmlns:xlink="http://www.w3.org/1999/xlink" version="1.1" id="Layer_1" x="0px" y="0px" viewBox="0 0 512.001 512.001" style="enable-background:new 0 0 512.001 512.001;" xml:space="preserve" width="512" height="512" class=""><g><path style="fill:#51504E;" d="M490.665,43.557H21.333C9.552,43.557,0,53.108,0,64.89v382.22c0,11.782,9.552,21.334,21.333,21.334  h469.332c11.783,0,21.335-9.552,21.335-21.334V64.89C512,53.108,502.448,43.557,490.665,43.557z M99.03,427.051H56.267v-38.069  H99.03V427.051z M99.03,123.019H56.267v-38.07H99.03V123.019z M188.206,427.051h-42.763v-38.069h42.763V427.051z M188.206,123.019  h-42.763v-38.07h42.763V123.019z M277.382,427.051h-42.764v-38.069h42.764V427.051z M277.382,123.019h-42.764v-38.07h42.764V123.019  z M366.557,427.051h-42.763v-38.069h42.763V427.051z M366.557,123.019h-42.763v-38.07h42.763V123.019z M455.733,427.051H412.97  v-38.069h42.764v38.069H455.733z M455.733,123.019H412.97v-38.07h42.764v38.07H455.733z" data-original="#51504E" class=""/><path style="fill:#6B6968;" d="M490.665,43.557H133.81c-16.343,38.877-25.381,81.58-25.381,126.396  c0,133.192,79.782,247.734,194.155,298.49h188.082c11.783,0,21.335-9.552,21.335-21.334V64.89  C512,53.108,502.448,43.557,490.665,43.557z M188.206,123.019h-42.763v-38.07h42.763V123.019z M277.382,427.051h-42.764v-38.069  h42.764V427.051z M277.382,123.019h-42.764v-38.07h42.764V123.019z M366.557,427.051h-42.763v-38.069h42.763V427.051z   M366.557,123.019h-42.763v-38.07h42.763V123.019z M455.733,427.051H412.97v-38.069h42.764v38.069H455.733z M455.733,123.019H412.97  v-38.07h42.764v38.07H455.733z" data-original="#6B6968" class=""/><path style="fill:#FFD559" d="M318.612,243.657l-112.88-56.44c-9.191-4.595-19.974,2.13-19.974,12.346V312.44  c0,10.267,10.837,16.927,19.974,12.345l112.88-56.439c4.674-2.338,7.628-7.117,7.628-12.345  C326.24,250.774,323.286,245.995,318.612,243.657z" data-original="#88DCE5" class="" data-old_color="#88DCE5"/><path style="fill:#DBB239" d="M211.515,199.562c0-2.968,0.957-5.802,2.652-8.128l-8.435-4.218  c-9.191-4.595-19.974,2.13-19.974,12.346V312.44c0,10.267,10.837,16.927,19.974,12.345l8.433-4.217  C210.508,315.547,211.515,321.969,211.515,199.562z" data-original="#74C4C4" class="active-path" data-old_color="#74C4C4"/></g> </svg>
