<?xml version="1.0" encoding="utf-8"?>
<!-- Generator: Adobe Illustrator 24.2.1, SVG Export Plug-In . SVG Version: 6.00 Build 0)  -->
<svg version="1.1" xmlns="http://www.w3.org/2000/svg" xmlns:xlink="http://www.w3.org/1999/xlink" x="0px" y="0px"
	 viewBox="0 0 500 500" style="enable-background:new 0 0 500 500;" xml:space="preserve">
<style type="text/css">
	.st0{fill:#0367BF;}
	.st1{fill:#C1D6F2;}
	.st2{clip-path:url(#SVGID_2_);fill:#EBA76C;}
	.st3{clip-path:url(#SVGID_2_);fill:#C4DFF8;}
	.st4{clip-path:url(#SVGID_2_);}
	.st5{fill:#EBA76C;}
	.st6{fill:#9EBEE6;}
	.st7{clip-path:url(#SVGID_2_);fill:none;stroke:#C1D6F2;stroke-width:6.8384;stroke-miterlimit:10;}
	.st8{fill:none;stroke:#2065BF;stroke-width:13.6769;stroke-miterlimit:10;}
	.st9{fill:#57A9F2;}
	.st10{fill:#3A7FD8;}
	.st11{fill:#BADCF2;}
	.st12{fill:#2065BF;}
	.st13{fill:#E17D27;}
	.st14{fill:#3C69BA;}
	.st15{fill:#6D9AD8;}
	.st16{fill:#F2A71D;}
	.st17{fill:#D86F13;}
	.st18{fill:#5885C7;}
	.st19{fill:#D29026;}
	.st20{fill:#1E3358;}
	.st21{fill:#6190D5;}
	.st22{fill:#4F4E4E;}
	.st23{fill:#C4DFF8;}
</style>
<g id="BACKGROUND">
</g>
<g id="OBJECTS">
	<g>
		<g>
			<path class="st0" d="M199.3,323.1l-1.4-3.5h-4.4l-1.4,3.5h-1.3l4.3-11h1.1l4.3,11H199.3z M197.5,318.4l-1.3-3.4
				c-0.2-0.4-0.3-1-0.5-1.6c-0.1,0.5-0.3,1-0.5,1.6l-1.3,3.4H197.5z"/>
			<path class="st0" d="M203.9,323.1h-1.2v-11.7h1.2V323.1z"/>
			<path class="st0" d="M214,314.8v0.8l-1.5,0.2c0.1,0.2,0.3,0.4,0.4,0.7c0.1,0.3,0.2,0.6,0.2,1c0,0.8-0.3,1.5-0.8,1.9
				c-0.6,0.5-1.3,0.7-2.3,0.7c-0.2,0-0.5,0-0.7-0.1c-0.5,0.3-0.8,0.6-0.8,1.1c0,0.2,0.1,0.4,0.3,0.5c0.2,0.1,0.5,0.2,1,0.2h1.5
				c0.9,0,1.6,0.2,2.1,0.6c0.5,0.4,0.7,0.9,0.7,1.6c0,0.9-0.4,1.6-1.1,2.1c-0.7,0.5-1.8,0.7-3.2,0.7c-1.1,0-1.9-0.2-2.5-0.6
				c-0.6-0.4-0.9-1-0.9-1.7c0-0.5,0.2-0.9,0.5-1.3c0.3-0.4,0.8-0.6,1.4-0.7c-0.2-0.1-0.4-0.2-0.5-0.4c-0.1-0.2-0.2-0.4-0.2-0.7
				c0-0.3,0.1-0.6,0.2-0.8c0.2-0.2,0.4-0.4,0.8-0.7c-0.4-0.2-0.8-0.5-1-0.9c-0.3-0.4-0.4-0.9-0.4-1.4c0-0.9,0.3-1.6,0.8-2.1
				s1.3-0.7,2.3-0.7c0.4,0,0.8,0,1.2,0.2H214z M207.4,324.4c0,0.4,0.2,0.8,0.6,1c0.4,0.2,0.9,0.3,1.6,0.3c1,0,1.8-0.2,2.3-0.5
				s0.8-0.7,0.8-1.3c0-0.4-0.1-0.8-0.4-0.9s-0.8-0.3-1.6-0.3h-1.5c-0.6,0-1,0.1-1.3,0.4S207.4,323.9,207.4,324.4z M208.1,317.5
				c0,0.6,0.2,1,0.5,1.3c0.3,0.3,0.8,0.4,1.4,0.4c1.2,0,1.8-0.6,1.8-1.8c0-1.2-0.6-1.9-1.8-1.9c-0.6,0-1,0.2-1.4,0.5
				S208.1,316.8,208.1,317.5z"/>
			<path class="st0" d="M223.5,318.9c0,1.3-0.3,2.4-1,3.1c-0.7,0.8-1.6,1.1-2.8,1.1c-0.7,0-1.4-0.2-2-0.5s-1-0.8-1.3-1.5
				c-0.3-0.6-0.5-1.4-0.5-2.3c0-1.3,0.3-2.4,1-3.1c0.7-0.7,1.6-1.1,2.8-1.1c1.2,0,2.1,0.4,2.7,1.1S223.5,317.6,223.5,318.9z
				 M217.2,318.9c0,1.1,0.2,1.9,0.6,2.4c0.4,0.6,1,0.8,1.9,0.8s1.4-0.3,1.9-0.8c0.4-0.5,0.6-1.4,0.6-2.4c0-1-0.2-1.8-0.6-2.4
				c-0.4-0.5-1-0.8-1.9-0.8c-0.8,0-1.4,0.3-1.8,0.8C217.4,317.1,217.2,317.9,217.2,318.9z"/>
			<path class="st0" d="M236.7,322L236.7,322c-0.6,0.8-1.5,1.3-2.7,1.3c-1.1,0-1.9-0.4-2.5-1.1c-0.6-0.7-0.9-1.8-0.9-3.1
				c0-1.4,0.3-2.4,0.9-3.2c0.6-0.8,1.4-1.1,2.5-1.1c1.1,0,2,0.4,2.6,1.2h0.1l-0.1-0.6l0-0.6v-3.4h1.2v11.7h-1L236.7,322z
				 M234.2,322.2c0.9,0,1.5-0.2,1.9-0.7s0.6-1.2,0.6-2.2V319c0-1.2-0.2-2-0.6-2.5c-0.4-0.5-1-0.7-1.9-0.7c-0.7,0-1.3,0.3-1.7,0.9
				s-0.6,1.4-0.6,2.4c0,1.1,0.2,1.8,0.6,2.4C232.9,321.9,233.5,322.2,234.2,322.2z"/>
			<path class="st0" d="M244.7,323.2c-1.2,0-2.2-0.4-2.9-1.1s-1.1-1.8-1.1-3.1c0-1.3,0.3-2.4,1-3.2c0.7-0.8,1.5-1.2,2.6-1.2
				c1,0,1.8,0.3,2.4,1c0.6,0.7,0.9,1.6,0.9,2.7v0.8h-5.7c0,1,0.3,1.7,0.7,2.2c0.5,0.5,1.1,0.8,2,0.8c0.9,0,1.8-0.2,2.6-0.6v1.1
				c-0.4,0.2-0.9,0.3-1.3,0.4S245.3,323.2,244.7,323.2z M244.4,315.7c-0.7,0-1.2,0.2-1.6,0.6s-0.6,1-0.7,1.8h4.3
				c0-0.8-0.2-1.4-0.5-1.8C245.5,315.9,245,315.7,244.4,315.7z"/>
			<path class="st0" d="M259,323.2c-1.4,0-2.4-0.4-3.2-1.1s-1.1-1.8-1.1-3.2c0-1.4,0.4-2.5,1.1-3.3c0.7-0.8,1.7-1.2,2.9-1.2
				c1.2,0,2.1,0.3,2.8,1c0.7,0.7,1,1.6,1,2.8v1.1H257c0,0.7,0.2,1.2,0.6,1.5s0.9,0.5,1.5,0.5c0.5,0,1-0.1,1.4-0.2
				c0.5-0.1,0.9-0.3,1.4-0.5v1.8c-0.4,0.2-0.8,0.3-1.3,0.4S259.6,323.2,259,323.2z M258.6,316.1c-0.5,0-0.9,0.2-1.1,0.5
				c-0.3,0.3-0.4,0.7-0.5,1.3h3.2c0-0.6-0.2-1-0.4-1.3C259.5,316.3,259.1,316.1,258.6,316.1z"/>
			<path class="st0" d="M269.6,314.5c0.3,0,0.6,0,0.8,0.1l-0.2,2.1c-0.2,0-0.4-0.1-0.7-0.1c-0.7,0-1.3,0.2-1.7,0.6
				c-0.4,0.4-0.6,0.9-0.6,1.6v4.3H265v-8.4h1.7l0.3,1.4h0.1c0.3-0.5,0.6-0.9,1.1-1.1S269.1,314.5,269.6,314.5z"/>
			<path class="st0" d="M277.3,314.5c0.3,0,0.6,0,0.8,0.1l-0.2,2.1c-0.2,0-0.4-0.1-0.7-0.1c-0.7,0-1.3,0.2-1.7,0.6
				c-0.4,0.4-0.6,0.9-0.6,1.6v4.3h-2.3v-8.4h1.7l0.3,1.4h0.1c0.3-0.5,0.6-0.9,1.1-1.1S276.8,314.5,277.3,314.5z"/>
			<path class="st0" d="M285.7,323.1l-0.4-1.1h-0.1c-0.4,0.5-0.8,0.8-1.2,1c-0.4,0.2-0.9,0.3-1.6,0.3c-0.8,0-1.4-0.2-1.9-0.7
				s-0.7-1.1-0.7-2c0-0.9,0.3-1.5,0.9-2c0.6-0.4,1.6-0.7,2.8-0.7l1.5,0v-0.4c0-0.9-0.4-1.3-1.3-1.3c-0.7,0-1.5,0.2-2.4,0.6l-0.8-1.5
				c1-0.5,2-0.8,3.2-0.8c1.1,0,2,0.2,2.6,0.7c0.6,0.5,0.9,1.2,0.9,2.2v5.6H285.7z M285,319.2l-0.9,0c-0.7,0-1.2,0.1-1.5,0.4
				c-0.3,0.2-0.5,0.6-0.5,1c0,0.6,0.4,1,1.1,1c0.5,0,1-0.2,1.3-0.5c0.3-0.3,0.5-0.7,0.5-1.2V319.2z"/>
			<path class="st0" d="M293,323.2c-1,0-1.8-0.4-2.3-1.1s-0.8-1.8-0.8-3.2c0-1.4,0.3-2.5,0.9-3.2c0.6-0.8,1.4-1.2,2.4-1.2
				c1.1,0,1.9,0.4,2.4,1.2h0.1c-0.1-0.6-0.2-1.2-0.2-1.7v-2.7h2.3v11.7h-1.8l-0.4-1.1h-0.1C294.9,322.8,294.1,323.2,293,323.2z
				 M293.8,321.4c0.6,0,1-0.2,1.3-0.5c0.3-0.3,0.4-0.9,0.4-1.7v-0.2c0-0.9-0.1-1.5-0.4-1.9c-0.3-0.4-0.7-0.6-1.4-0.6
				c-0.5,0-0.9,0.2-1.2,0.6c-0.3,0.4-0.4,1.1-0.4,1.9s0.1,1.4,0.4,1.9C292.9,321.2,293.3,321.4,293.8,321.4z"/>
			<path class="st0" d="M308.4,318.8c0,1.4-0.4,2.4-1.1,3.2c-0.7,0.8-1.7,1.2-3,1.2c-0.8,0-1.5-0.2-2.1-0.5
				c-0.6-0.4-1.1-0.9-1.4-1.5c-0.3-0.7-0.5-1.4-0.5-2.3c0-1.4,0.4-2.4,1.1-3.2c0.7-0.8,1.7-1.1,3-1.1c0.8,0,1.5,0.2,2.1,0.5
				c0.6,0.4,1.1,0.9,1.4,1.5C308.3,317.2,308.4,318,308.4,318.8z M302.6,318.8c0,0.8,0.1,1.5,0.4,1.9c0.3,0.4,0.7,0.6,1.3,0.6
				c0.6,0,1.1-0.2,1.3-0.6c0.3-0.4,0.4-1.1,0.4-1.9c0-0.8-0.1-1.5-0.4-1.9s-0.7-0.6-1.3-0.6c-0.6,0-1.1,0.2-1.3,0.6
				S302.6,318,302.6,318.8z"/>
			<path class="st0" d="M198.8,341.1v-5.3c0-0.7-0.2-1.2-0.5-1.5c-0.3-0.3-0.8-0.5-1.4-0.5c-0.9,0-1.5,0.2-1.9,0.7
				c-0.4,0.5-0.6,1.2-0.6,2.3v4.3h-1.2v-8.2h1l0.2,1.1h0.1c0.3-0.4,0.6-0.7,1.1-0.9c0.5-0.2,1-0.3,1.5-0.3c1,0,1.7,0.2,2.2,0.7
				c0.5,0.5,0.8,1.2,0.8,2.3v5.4H198.8z"/>
			<path class="st0" d="M208.4,341.1l-0.2-1.2h-0.1c-0.4,0.5-0.8,0.9-1.2,1s-0.9,0.3-1.5,0.3c-0.8,0-1.5-0.2-1.9-0.6
				c-0.5-0.4-0.7-1-0.7-1.8c0-1.7,1.3-2.5,4-2.6l1.4,0v-0.5c0-0.6-0.1-1.1-0.4-1.4c-0.3-0.3-0.7-0.5-1.3-0.5c-0.7,0-1.5,0.2-2.3,0.6
				l-0.4-1c0.4-0.2,0.9-0.4,1.3-0.5c0.5-0.1,1-0.2,1.5-0.2c1,0,1.7,0.2,2.2,0.7c0.5,0.4,0.7,1.1,0.7,2.1v5.6H208.4z M207.5,331.7
				c-0.2,0-0.4,0-0.6-0.1c-0.2-0.1-0.4-0.2-0.6-0.3c-0.2-0.1-0.4-0.2-0.6-0.3c-0.2-0.1-0.4-0.1-0.5-0.1c-0.3,0-0.4,0.1-0.6,0.2
				c-0.1,0.2-0.2,0.4-0.3,0.7h-0.7c0.1-0.6,0.2-1.1,0.5-1.4c0.3-0.3,0.7-0.5,1.1-0.5c0.2,0,0.5,0,0.7,0.1s0.4,0.2,0.6,0.3
				c0.2,0.1,0.4,0.2,0.6,0.3s0.4,0.1,0.5,0.1c0.2,0,0.4-0.1,0.5-0.2c0.1-0.1,0.2-0.4,0.3-0.7h0.7c-0.1,0.6-0.2,1.1-0.5,1.4
				C208.3,331.6,207.9,331.7,207.5,331.7z M205.6,340.2c0.8,0,1.4-0.2,1.8-0.6c0.4-0.4,0.7-1,0.7-1.8V337l-1.2,0.1
				c-1,0-1.7,0.2-2.1,0.5c-0.4,0.3-0.7,0.7-0.7,1.3c0,0.5,0.1,0.8,0.4,1C204.7,340.1,205.1,340.2,205.6,340.2z"/>
			<path class="st0" d="M219.7,336.9c0,1.3-0.3,2.4-1,3.1c-0.7,0.8-1.6,1.1-2.8,1.1c-0.7,0-1.4-0.2-2-0.5s-1-0.8-1.3-1.5
				c-0.3-0.6-0.5-1.4-0.5-2.3c0-1.3,0.3-2.4,1-3.1c0.7-0.7,1.6-1.1,2.8-1.1c1.2,0,2.1,0.4,2.7,1.1S219.7,335.6,219.7,336.9z
				 M213.5,336.9c0,1.1,0.2,1.9,0.6,2.4c0.4,0.6,1,0.8,1.9,0.8s1.4-0.3,1.9-0.8c0.4-0.5,0.6-1.4,0.6-2.4c0-1-0.2-1.8-0.6-2.4
				c-0.4-0.5-1-0.8-1.9-0.8c-0.8,0-1.4,0.3-1.8,0.8C213.7,335.1,213.5,335.9,213.5,336.9z"/>
			<path class="st0" d="M230.8,341.2c-1.2,0-2.2-0.4-2.9-1.1s-1.1-1.8-1.1-3.1c0-1.3,0.3-2.4,1-3.2c0.7-0.8,1.5-1.2,2.6-1.2
				c1,0,1.8,0.3,2.4,1c0.6,0.7,0.9,1.6,0.9,2.7v0.8h-5.7c0,1,0.3,1.7,0.7,2.2c0.5,0.5,1.1,0.8,2,0.8c0.9,0,1.8-0.2,2.6-0.6v1.1
				c-0.4,0.2-0.9,0.3-1.3,0.4S231.4,341.2,230.8,341.2z M230.5,333.7c-0.7,0-1.2,0.2-1.6,0.6s-0.6,1-0.7,1.8h4.3
				c0-0.8-0.2-1.4-0.5-1.8C231.6,333.9,231.1,333.7,230.5,333.7z"/>
			<path class="st0" d="M242,338.8c0,0.8-0.3,1.4-0.9,1.8c-0.6,0.4-1.4,0.6-2.4,0.6c-1.1,0-1.9-0.2-2.6-0.5v-1.2
				c0.4,0.2,0.8,0.4,1.3,0.5c0.5,0.1,0.9,0.2,1.3,0.2c0.7,0,1.2-0.1,1.5-0.3s0.5-0.5,0.5-1c0-0.3-0.1-0.6-0.4-0.8
				c-0.3-0.2-0.8-0.5-1.6-0.8c-0.8-0.3-1.3-0.5-1.6-0.7c-0.3-0.2-0.6-0.5-0.7-0.7c-0.2-0.3-0.2-0.6-0.2-1c0-0.7,0.3-1.2,0.8-1.6
				c0.5-0.4,1.3-0.6,2.2-0.6c0.9,0,1.8,0.2,2.6,0.5l-0.4,1c-0.8-0.3-1.6-0.5-2.2-0.5c-0.6,0-1,0.1-1.3,0.3c-0.3,0.2-0.5,0.4-0.5,0.8
				c0,0.2,0.1,0.4,0.2,0.6c0.1,0.2,0.3,0.3,0.5,0.4c0.3,0.1,0.7,0.3,1.4,0.6c1,0.4,1.6,0.7,2,1.1C241.8,337.8,242,338.3,242,338.8z"
				/>
			<path class="st0" d="M247.4,340.2c0.2,0,0.4,0,0.6,0s0.4-0.1,0.5-0.1v1c-0.1,0.1-0.3,0.1-0.6,0.2c-0.3,0-0.5,0.1-0.7,0.1
				c-1.6,0-2.4-0.8-2.4-2.5v-4.9h-1.2v-0.6l1.2-0.5l0.5-1.8h0.7v1.9h2.4v1h-2.4v4.8c0,0.5,0.1,0.9,0.4,1.1
				C246.6,340,247,340.2,247.4,340.2z"/>
			<path class="st0" d="M255.9,341.1l-0.2-1.2h-0.1c-0.4,0.5-0.8,0.9-1.2,1s-0.9,0.3-1.5,0.3c-0.8,0-1.5-0.2-1.9-0.6
				c-0.5-0.4-0.7-1-0.7-1.8c0-1.7,1.3-2.5,4-2.6l1.4,0v-0.5c0-0.6-0.1-1.1-0.4-1.4c-0.3-0.3-0.7-0.5-1.3-0.5c-0.7,0-1.5,0.2-2.3,0.6
				l-0.4-1c0.4-0.2,0.8-0.4,1.3-0.5c0.5-0.1,1-0.2,1.5-0.2c1,0,1.7,0.2,2.2,0.7c0.5,0.4,0.7,1.1,0.7,2.1v5.6H255.9z M253.1,340.2
				c0.8,0,1.4-0.2,1.8-0.6s0.7-1,0.7-1.8V337l-1.2,0.1c-1,0-1.7,0.2-2.1,0.5c-0.4,0.3-0.7,0.7-0.7,1.3c0,0.5,0.1,0.8,0.4,1
				C252.2,340.1,252.6,340.2,253.1,340.2z M252.8,331.5c0.2-0.3,0.5-0.7,0.8-1.1c0.3-0.4,0.5-0.8,0.7-1.1h1.5v0.2
				c-0.2,0.3-0.5,0.7-1,1.2c-0.4,0.5-0.8,0.8-1.1,1.1h-0.8V331.5z"/>
			<path class="st0" d="M268.1,341.2c-1.2,0-2.1-0.4-2.8-1.1c-0.7-0.7-1-1.8-1-3.1c0-1.4,0.3-2.4,1-3.2c0.7-0.8,1.6-1.1,2.8-1.1
				c0.4,0,0.8,0,1.2,0.1s0.7,0.2,0.9,0.3l-0.4,1.1c-0.3-0.1-0.6-0.2-0.9-0.3c-0.3-0.1-0.6-0.1-0.9-0.1c-1.7,0-2.5,1.1-2.5,3.2
				c0,1,0.2,1.8,0.6,2.3c0.4,0.5,1,0.8,1.8,0.8c0.7,0,1.4-0.1,2.1-0.4v1.1C269.6,341.1,269,341.2,268.1,341.2z"/>
			<path class="st0" d="M276.3,341.2c-1.2,0-2.2-0.4-2.9-1.1c-0.7-0.7-1.1-1.8-1.1-3.1c0-1.3,0.3-2.4,1-3.2c0.7-0.8,1.5-1.2,2.6-1.2
				c1,0,1.8,0.3,2.4,1c0.6,0.7,0.9,1.6,0.9,2.7v0.8h-5.7c0,1,0.3,1.7,0.7,2.2c0.5,0.5,1.1,0.8,2,0.8c0.9,0,1.8-0.2,2.6-0.6v1.1
				c-0.4,0.2-0.9,0.3-1.3,0.4C277.4,341.2,276.9,341.2,276.3,341.2z M276,333.7c-0.7,0-1.2,0.2-1.6,0.6c-0.4,0.4-0.6,1-0.7,1.8h4.3
				c0-0.8-0.2-1.4-0.5-1.8C277.1,333.9,276.6,333.7,276,333.7z"/>
			<path class="st0" d="M286,332.7c0.4,0,0.7,0,1,0.1l-0.2,1.2c-0.3-0.1-0.6-0.1-0.9-0.1c-0.7,0-1.2,0.3-1.7,0.8s-0.7,1.2-0.7,2v4.4
				h-1.2v-8.2h1l0.1,1.5h0.1c0.3-0.5,0.7-0.9,1.1-1.2C285,332.8,285.4,332.7,286,332.7z"/>
			<path class="st0" d="M291.8,340.2c0.2,0,0.4,0,0.6,0s0.4-0.1,0.5-0.1v1c-0.1,0.1-0.3,0.1-0.6,0.2c-0.3,0-0.5,0.1-0.7,0.1
				c-1.6,0-2.4-0.8-2.4-2.5v-4.9h-1.2v-0.6l1.2-0.5l0.5-1.8h0.7v1.9h2.4v1h-2.4v4.8c0,0.5,0.1,0.9,0.4,1.1S291.4,340.2,291.8,340.2z
				"/>
			<path class="st0" d="M302.4,336.9c0,1.3-0.3,2.4-1,3.1c-0.7,0.8-1.6,1.1-2.8,1.1c-0.7,0-1.4-0.2-2-0.5c-0.6-0.3-1-0.8-1.3-1.5
				c-0.3-0.6-0.5-1.4-0.5-2.3c0-1.3,0.3-2.4,1-3.1c0.7-0.7,1.6-1.1,2.8-1.1c1.2,0,2.1,0.4,2.7,1.1S302.4,335.6,302.4,336.9z
				 M296.2,336.9c0,1.1,0.2,1.9,0.6,2.4c0.4,0.6,1,0.8,1.9,0.8s1.4-0.3,1.9-0.8c0.4-0.5,0.6-1.4,0.6-2.4c0-1-0.2-1.8-0.6-2.4
				c-0.4-0.5-1-0.8-1.9-0.8c-0.8,0-1.4,0.3-1.8,0.8C296.4,335.1,296.2,335.9,296.2,336.9z"/>
			<path class="st0" d="M305.1,340.3c0-0.7,0.3-1,0.9-1c0.3,0,0.5,0.1,0.7,0.3c0.2,0.2,0.2,0.4,0.2,0.8c0,0.3-0.1,0.6-0.2,0.7
				s-0.4,0.3-0.7,0.3c-0.3,0-0.5-0.1-0.6-0.2C305.2,340.9,305.1,340.6,305.1,340.3z M306.5,338h-0.8l-0.4-8h1.6L306.5,338z"/>
		</g>
		<g>
			<path class="st0" d="M150,433.7h-1.5l-6-9.2h-0.1c0.1,1.1,0.1,2.1,0.1,3v6.2h-1.2v-11h1.4l6,9.2h0.1c0-0.1,0-0.6-0.1-1.3
				s0-1.3,0-1.6v-6.3h1.2V433.7z"/>
			<path class="st0" d="M158.6,433.7l-0.2-1.2h-0.1c-0.4,0.5-0.8,0.9-1.2,1s-0.9,0.3-1.5,0.3c-0.8,0-1.5-0.2-1.9-0.6
				c-0.5-0.4-0.7-1-0.7-1.8c0-1.7,1.3-2.5,4-2.6l1.4,0v-0.5c0-0.6-0.1-1.1-0.4-1.4c-0.3-0.3-0.7-0.5-1.3-0.5c-0.7,0-1.5,0.2-2.3,0.6
				l-0.4-1c0.4-0.2,0.9-0.4,1.3-0.5c0.5-0.1,1-0.2,1.5-0.2c1,0,1.7,0.2,2.2,0.7c0.5,0.4,0.7,1.1,0.7,2.1v5.6H158.6z M157.7,424.4
				c-0.2,0-0.4,0-0.6-0.1c-0.2-0.1-0.4-0.2-0.6-0.3c-0.2-0.1-0.4-0.2-0.6-0.3c-0.2-0.1-0.4-0.1-0.5-0.1c-0.3,0-0.4,0.1-0.6,0.2
				c-0.1,0.2-0.2,0.4-0.3,0.7h-0.7c0.1-0.6,0.2-1.1,0.5-1.4c0.3-0.3,0.7-0.5,1.1-0.5c0.2,0,0.5,0,0.7,0.1s0.4,0.2,0.6,0.3
				c0.2,0.1,0.4,0.2,0.6,0.3s0.4,0.1,0.5,0.1c0.2,0,0.4-0.1,0.5-0.2c0.1-0.1,0.2-0.4,0.3-0.7h0.7c-0.1,0.6-0.2,1.1-0.5,1.4
				C158.5,424.2,158.1,424.4,157.7,424.4z M155.8,432.8c0.8,0,1.4-0.2,1.8-0.6c0.4-0.4,0.7-1,0.7-1.8v-0.7l-1.2,0.1
				c-1,0-1.7,0.2-2.1,0.5c-0.4,0.3-0.7,0.7-0.7,1.3c0,0.5,0.1,0.8,0.4,1C155,432.7,155.3,432.8,155.8,432.8z"/>
			<path class="st0" d="M170,429.6c0,1.3-0.3,2.4-1,3.1c-0.7,0.8-1.6,1.1-2.8,1.1c-0.7,0-1.4-0.2-2-0.5s-1-0.8-1.3-1.5
				c-0.3-0.6-0.5-1.4-0.5-2.3c0-1.3,0.3-2.4,1-3.1c0.7-0.7,1.6-1.1,2.8-1.1c1.2,0,2.1,0.4,2.7,1.1S170,428.3,170,429.6z
				 M163.7,429.6c0,1.1,0.2,1.9,0.6,2.4c0.4,0.6,1,0.8,1.9,0.8s1.4-0.3,1.9-0.8c0.4-0.5,0.6-1.4,0.6-2.4c0-1-0.2-1.8-0.6-2.4
				c-0.4-0.5-1-0.8-1.9-0.8c-0.8,0-1.4,0.3-1.8,0.8C163.9,427.7,163.7,428.5,163.7,429.6z"/>
			<path class="st0" d="M178.8,433.7h-1.2V422h1.2V433.7z"/>
			<path class="st0" d="M189.3,429.6c0,1.3-0.3,2.4-1,3.1c-0.7,0.8-1.6,1.1-2.8,1.1c-0.7,0-1.4-0.2-2-0.5s-1-0.8-1.3-1.5
				c-0.3-0.6-0.5-1.4-0.5-2.3c0-1.3,0.3-2.4,1-3.1c0.7-0.7,1.6-1.1,2.8-1.1c1.2,0,2.1,0.4,2.7,1.1S189.3,428.3,189.3,429.6z
				 M183,429.6c0,1.1,0.2,1.9,0.6,2.4c0.4,0.6,1,0.8,1.9,0.8s1.4-0.3,1.9-0.8c0.4-0.5,0.6-1.4,0.6-2.4c0-1-0.2-1.8-0.6-2.4
				c-0.4-0.5-1-0.8-1.9-0.8c-0.8,0-1.4,0.3-1.8,0.8C183.2,427.7,183,428.5,183,429.6z"/>
			<path class="st0" d="M195.4,433.9c-1.2,0-2.1-0.4-2.8-1.1c-0.7-0.7-1-1.8-1-3.1c0-1.4,0.3-2.4,1-3.2s1.6-1.1,2.8-1.1
				c0.4,0,0.8,0,1.2,0.1c0.4,0.1,0.7,0.2,0.9,0.3l-0.4,1.1c-0.3-0.1-0.6-0.2-0.9-0.3c-0.3-0.1-0.6-0.1-0.9-0.1
				c-1.7,0-2.5,1.1-2.5,3.2c0,1,0.2,1.8,0.6,2.3c0.4,0.5,1,0.8,1.8,0.8c0.7,0,1.4-0.1,2.1-0.4v1.1
				C197,433.7,196.3,433.9,195.4,433.9z"/>
			<path class="st0" d="M205.2,433.7l-0.2-1.2h-0.1c-0.4,0.5-0.8,0.9-1.2,1s-0.9,0.3-1.5,0.3c-0.8,0-1.5-0.2-1.9-0.6
				c-0.5-0.4-0.7-1-0.7-1.8c0-1.7,1.3-2.5,4-2.6l1.4,0v-0.5c0-0.6-0.1-1.1-0.4-1.4c-0.3-0.3-0.7-0.5-1.3-0.5c-0.7,0-1.5,0.2-2.3,0.6
				l-0.4-1c0.4-0.2,0.9-0.4,1.3-0.5c0.5-0.1,1-0.2,1.5-0.2c1,0,1.7,0.2,2.2,0.7c0.5,0.4,0.7,1.1,0.7,2.1v5.6H205.2z M202.4,432.8
				c0.8,0,1.4-0.2,1.8-0.6c0.4-0.4,0.7-1,0.7-1.8v-0.7l-1.2,0.1c-1,0-1.7,0.2-2.1,0.5c-0.4,0.3-0.7,0.7-0.7,1.3c0,0.5,0.1,0.8,0.4,1
				C201.6,432.7,201.9,432.8,202.4,432.8z"/>
			<path class="st0" d="M210.7,433.7h-1.2V422h1.2V433.7z"/>
			<path class="st0" d="M213.9,423.3c0-0.3,0.1-0.5,0.2-0.6s0.3-0.2,0.5-0.2c0.2,0,0.4,0.1,0.5,0.2c0.1,0.1,0.2,0.3,0.2,0.6
				s-0.1,0.5-0.2,0.6c-0.1,0.1-0.3,0.2-0.5,0.2c-0.2,0-0.4-0.1-0.5-0.2S213.9,423.5,213.9,423.3z M215.3,433.7H214v-8.2h1.2V433.7z"
				/>
			<path class="st0" d="M223.9,433.7h-6v-0.8l4.5-6.4h-4.2v-1h5.6v1l-4.4,6.3h4.5V433.7z"/>
			<path class="st0" d="M231.6,433.7l-0.2-1.2h-0.1c-0.4,0.5-0.8,0.9-1.2,1s-0.9,0.3-1.5,0.3c-0.8,0-1.5-0.2-1.9-0.6
				c-0.5-0.4-0.7-1-0.7-1.8c0-1.7,1.3-2.5,4-2.6l1.4,0v-0.5c0-0.6-0.1-1.1-0.4-1.4c-0.3-0.3-0.7-0.5-1.3-0.5c-0.7,0-1.5,0.2-2.3,0.6
				l-0.4-1c0.4-0.2,0.9-0.4,1.3-0.5c0.5-0.1,1-0.2,1.5-0.2c1,0,1.7,0.2,2.2,0.7c0.5,0.4,0.7,1.1,0.7,2.1v5.6H231.6z M228.8,432.8
				c0.8,0,1.4-0.2,1.8-0.6c0.4-0.4,0.7-1,0.7-1.8v-0.7l-1.2,0.1c-1,0-1.7,0.2-2.1,0.5c-0.4,0.3-0.7,0.7-0.7,1.3c0,0.5,0.1,0.8,0.4,1
				C227.9,432.7,228.3,432.8,228.8,432.8z"/>
			<path class="st0" d="M246.3,433.7v-5.4c0-0.7-0.1-1.1-0.4-1.5c-0.3-0.3-0.7-0.5-1.3-0.5c-0.8,0-1.4,0.2-1.7,0.7
				c-0.4,0.4-0.6,1.1-0.6,2.1v4.6h-1.2v-5.4c0-0.7-0.1-1.1-0.4-1.5c-0.3-0.3-0.7-0.5-1.3-0.5c-0.8,0-1.4,0.2-1.7,0.7
				c-0.4,0.5-0.5,1.2-0.5,2.3v4.3h-1.2v-8.2h1l0.2,1.1h0.1c0.2-0.4,0.6-0.7,1-0.9s0.9-0.3,1.4-0.3c1.3,0,2.1,0.5,2.5,1.4h0.1
				c0.2-0.4,0.6-0.8,1.1-1c0.5-0.3,1-0.4,1.6-0.4c0.9,0,1.6,0.2,2.1,0.7c0.5,0.5,0.7,1.2,0.7,2.3v5.4H246.3z"/>
			<path class="st0" d="M257.9,429.6c0,1.3-0.3,2.4-1,3.1s-1.6,1.1-2.8,1.1c-0.7,0-1.4-0.2-2-0.5c-0.6-0.3-1-0.8-1.3-1.5
				c-0.3-0.6-0.5-1.4-0.5-2.3c0-1.3,0.3-2.4,1-3.1c0.7-0.7,1.6-1.1,2.8-1.1c1.2,0,2.1,0.4,2.7,1.1S257.9,428.3,257.9,429.6z
				 M251.7,429.6c0,1.1,0.2,1.9,0.6,2.4c0.4,0.6,1,0.8,1.9,0.8s1.4-0.3,1.9-0.8c0.4-0.5,0.6-1.4,0.6-2.4c0-1-0.2-1.8-0.6-2.4
				c-0.4-0.5-1-0.8-1.9-0.8c-0.8,0-1.4,0.3-1.8,0.8C251.9,427.7,251.7,428.5,251.7,429.6z"/>
			<path class="st0" d="M266.1,431.5c0,0.8-0.3,1.4-0.9,1.8c-0.6,0.4-1.4,0.6-2.4,0.6c-1.1,0-1.9-0.2-2.6-0.5v-1.2
				c0.4,0.2,0.8,0.4,1.3,0.5c0.5,0.1,0.9,0.2,1.3,0.2c0.7,0,1.2-0.1,1.5-0.3s0.5-0.5,0.5-1c0-0.3-0.1-0.6-0.4-0.8
				c-0.3-0.2-0.8-0.5-1.6-0.8c-0.8-0.3-1.3-0.5-1.6-0.7c-0.3-0.2-0.6-0.5-0.7-0.7c-0.2-0.3-0.2-0.6-0.2-1c0-0.7,0.3-1.2,0.8-1.6
				c0.5-0.4,1.3-0.6,2.2-0.6c0.9,0,1.8,0.2,2.6,0.5l-0.4,1c-0.8-0.3-1.6-0.5-2.2-0.5c-0.6,0-1,0.1-1.3,0.3c-0.3,0.2-0.5,0.4-0.5,0.8
				c0,0.2,0.1,0.4,0.2,0.6c0.1,0.2,0.3,0.3,0.5,0.4c0.3,0.1,0.7,0.3,1.4,0.6c1,0.4,1.6,0.7,2,1.1C266,430.5,266.1,430.9,266.1,431.5
				z"/>
			<path class="st0" d="M280.7,429.6c0,1.3-0.3,2.4-1,3.1c-0.7,0.8-1.6,1.1-2.8,1.1c-0.7,0-1.4-0.2-2-0.5c-0.6-0.3-1-0.8-1.3-1.5
				c-0.3-0.6-0.5-1.4-0.5-2.3c0-1.3,0.3-2.4,1-3.1c0.7-0.7,1.6-1.1,2.8-1.1c1.2,0,2.1,0.4,2.7,1.1S280.7,428.3,280.7,429.6z
				 M274.4,429.6c0,1.1,0.2,1.9,0.6,2.4c0.4,0.6,1,0.8,1.9,0.8s1.4-0.3,1.9-0.8c0.4-0.5,0.6-1.4,0.6-2.4c0-1-0.2-1.8-0.6-2.4
				c-0.4-0.5-1-0.8-1.9-0.8c-0.8,0-1.4,0.3-1.8,0.8C274.6,427.7,274.4,428.5,274.4,429.6z"/>
			<path class="st0" d="M291.2,433.9c-1.1,0-1.9-0.4-2.5-1.1s-0.9-1.8-0.9-3.1c0-1.3,0.3-2.4,0.9-3.2c0.6-0.8,1.4-1.1,2.5-1.1
				c1.1,0,2,0.4,2.6,1.3h0.1l0.2-1.1h1v11.9h-1.2v-3.5c0-0.5,0-0.9,0.1-1.3h-0.1C293.2,433.5,292.4,433.9,291.2,433.9z M291.4,432.8
				c0.8,0,1.4-0.2,1.8-0.7c0.4-0.4,0.6-1.2,0.6-2.3v-0.3c0-1.2-0.2-2-0.6-2.5s-1-0.8-1.9-0.8c-0.7,0-1.3,0.3-1.7,0.9
				s-0.6,1.4-0.6,2.4c0,1,0.2,1.8,0.6,2.4C290.1,432.6,290.6,432.8,291.4,432.8z"/>
			<path class="st0" d="M299.6,425.5v5.3c0,0.7,0.2,1.2,0.5,1.5c0.3,0.3,0.8,0.5,1.4,0.5c0.9,0,1.5-0.2,1.9-0.7
				c0.4-0.5,0.6-1.2,0.6-2.3v-4.3h1.2v8.2h-1l-0.2-1.1h-0.1c-0.3,0.4-0.6,0.7-1.1,0.9c-0.5,0.2-1,0.3-1.6,0.3c-1,0-1.8-0.2-2.3-0.7
				s-0.7-1.2-0.7-2.3v-5.4H299.6z"/>
			<path class="st0" d="M312.1,433.9c-1.2,0-2.2-0.4-2.9-1.1c-0.7-0.7-1.1-1.8-1.1-3.1c0-1.3,0.3-2.4,1-3.2c0.7-0.8,1.5-1.2,2.6-1.2
				c1,0,1.8,0.3,2.4,1c0.6,0.7,0.9,1.6,0.9,2.7v0.8h-5.7c0,1,0.3,1.7,0.7,2.2c0.5,0.5,1.1,0.8,2,0.8c0.9,0,1.8-0.2,2.6-0.6v1.1
				c-0.4,0.2-0.9,0.3-1.3,0.4C313.1,433.8,312.6,433.9,312.1,433.9z M311.7,426.4c-0.7,0-1.2,0.2-1.6,0.6c-0.4,0.4-0.6,1-0.7,1.8
				h4.3c0-0.8-0.2-1.4-0.5-1.8C312.9,426.6,312.4,426.4,311.7,426.4z"/>
			<path class="st0" d="M326.5,433.9c-0.5,0-1-0.1-1.5-0.3s-0.8-0.5-1.1-0.9h-0.1c0.1,0.5,0.1,0.9,0.1,1.4v3.4h-1.2v-11.9h1l0.2,1.1
				h0.1c0.3-0.5,0.7-0.8,1.1-1s0.9-0.3,1.5-0.3c1.1,0,1.9,0.4,2.5,1.1s0.9,1.8,0.9,3.1c0,1.4-0.3,2.4-0.9,3.2
				S327.5,433.9,326.5,433.9z M326.3,426.4c-0.8,0-1.5,0.2-1.8,0.7c-0.4,0.5-0.6,1.2-0.6,2.2v0.3c0,1.2,0.2,2,0.6,2.5
				c0.4,0.5,1,0.7,1.9,0.7c0.7,0,1.3-0.3,1.7-0.9s0.6-1.4,0.6-2.4c0-1-0.2-1.8-0.6-2.4C327.6,426.7,327,426.4,326.3,426.4z"/>
			<path class="st0" d="M336.5,425.3c0.4,0,0.7,0,1,0.1l-0.2,1.2c-0.3-0.1-0.6-0.1-0.9-0.1c-0.7,0-1.2,0.3-1.7,0.8s-0.7,1.2-0.7,2
				v4.4h-1.2v-8.2h1l0.1,1.5h0.1c0.3-0.5,0.7-0.9,1.1-1.2C335.5,425.5,336,425.3,336.5,425.3z"/>
			<path class="st0" d="M346.9,429.6c0,1.3-0.3,2.4-1,3.1c-0.7,0.8-1.6,1.1-2.8,1.1c-0.7,0-1.4-0.2-2-0.5c-0.6-0.3-1-0.8-1.3-1.5
				c-0.3-0.6-0.5-1.4-0.5-2.3c0-1.3,0.3-2.4,1-3.1c0.7-0.7,1.6-1.1,2.8-1.1c1.2,0,2.1,0.4,2.7,1.1S346.9,428.3,346.9,429.6z
				 M340.6,429.6c0,1.1,0.2,1.9,0.6,2.4c0.4,0.6,1,0.8,1.9,0.8s1.4-0.3,1.9-0.8c0.4-0.5,0.6-1.4,0.6-2.4c0-1-0.2-1.8-0.6-2.4
				c-0.4-0.5-1-0.8-1.9-0.8c-0.8,0-1.4,0.3-1.8,0.8C340.8,427.7,340.6,428.5,340.6,429.6z"/>
			<path class="st0" d="M353,433.9c-1.2,0-2.1-0.4-2.8-1.1c-0.7-0.7-1-1.8-1-3.1c0-1.4,0.3-2.4,1-3.2c0.7-0.8,1.6-1.1,2.8-1.1
				c0.4,0,0.8,0,1.2,0.1s0.7,0.2,0.9,0.3l-0.4,1.1c-0.3-0.1-0.6-0.2-0.9-0.3c-0.3-0.1-0.6-0.1-0.9-0.1c-1.7,0-2.5,1.1-2.5,3.2
				c0,1,0.2,1.8,0.6,2.3c0.4,0.5,1,0.8,1.8,0.8c0.7,0,1.4-0.1,2.1-0.4v1.1C354.6,433.7,353.9,433.9,353,433.9z"/>
			<path class="st0" d="M358.9,425.5v5.3c0,0.7,0.2,1.2,0.5,1.5c0.3,0.3,0.8,0.5,1.4,0.5c0.9,0,1.5-0.2,1.9-0.7
				c0.4-0.5,0.6-1.2,0.6-2.3v-4.3h1.2v8.2h-1l-0.2-1.1h-0.1c-0.3,0.4-0.6,0.7-1.1,0.9c-0.5,0.2-1,0.3-1.6,0.3c-1,0-1.8-0.2-2.3-0.7
				s-0.7-1.2-0.7-2.3v-5.4H358.9z"/>
			<path class="st0" d="M371.7,425.3c0.4,0,0.7,0,1,0.1l-0.2,1.2c-0.3-0.1-0.6-0.1-0.9-0.1c-0.7,0-1.2,0.3-1.7,0.8s-0.7,1.2-0.7,2
				v4.4h-1.2v-8.2h1l0.1,1.5h0.1c0.3-0.5,0.7-0.9,1.1-1.2C370.7,425.5,371.2,425.3,371.7,425.3z"/>
			<path class="st0" d="M380,433.7l-0.2-1.2h-0.1c-0.4,0.5-0.8,0.9-1.2,1s-0.9,0.3-1.5,0.3c-0.8,0-1.5-0.2-1.9-0.6
				c-0.5-0.4-0.7-1-0.7-1.8c0-1.7,1.3-2.5,4-2.6l1.4,0v-0.5c0-0.6-0.1-1.1-0.4-1.4c-0.3-0.3-0.7-0.5-1.3-0.5c-0.7,0-1.5,0.2-2.3,0.6
				l-0.4-1c0.4-0.2,0.9-0.4,1.3-0.5c0.5-0.1,1-0.2,1.5-0.2c1,0,1.7,0.2,2.2,0.7c0.5,0.4,0.7,1.1,0.7,2.1v5.6H380z M377.2,432.8
				c0.8,0,1.4-0.2,1.8-0.6s0.7-1,0.7-1.8v-0.7l-1.2,0.1c-1,0-1.7,0.2-2.1,0.5c-0.4,0.3-0.7,0.7-0.7,1.3c0,0.5,0.1,0.8,0.4,1
				C376.3,432.7,376.7,432.8,377.2,432.8z"/>
			<path class="st0" d="M384,432.9c0-0.3,0.1-0.6,0.2-0.8c0.2-0.2,0.4-0.3,0.7-0.3c0.3,0,0.5,0.1,0.7,0.3c0.2,0.2,0.2,0.4,0.2,0.8
				c0,0.3-0.1,0.6-0.2,0.8c-0.2,0.2-0.4,0.3-0.7,0.3c-0.3,0-0.5-0.1-0.6-0.2C384.1,433.5,384,433.3,384,432.9z"/>
		</g>
		<g>
			<path class="st0" d="M225.1,100.8H218V113h-12.2v-12.2h-25.2v-8.7L206.5,54H218v37.1h7.1V100.8z M205.8,91.1v-10
				c0-1.7,0.1-4.1,0.2-7.3c0.1-3.2,0.2-5,0.3-5.5H206c-1,2.2-2.2,4.4-3.6,6.5l-10.8,16.4H205.8z"/>
			<path class="st0" d="M270.7,83.5c0,10.3-1.7,17.9-5.1,22.9c-3.4,5-8.6,7.4-15.6,7.4c-6.8,0-12-2.6-15.4-7.7
				c-3.5-5.1-5.2-12.7-5.2-22.7c0-10.4,1.7-18.1,5-23c3.4-4.9,8.5-7.4,15.6-7.4c6.8,0,12,2.6,15.5,7.8
				C268.9,66,270.7,73.5,270.7,83.5z M241.8,83.5c0,7.2,0.6,12.4,1.9,15.6c1.3,3.1,3.4,4.7,6.3,4.7c2.9,0,5-1.6,6.3-4.8
				c1.3-3.2,1.9-8.3,1.9-15.5c0-7.2-0.7-12.4-2-15.6c-1.3-3.2-3.4-4.7-6.3-4.7c-2.9,0-5,1.6-6.3,4.7
				C242.4,71.1,241.8,76.3,241.8,83.5z"/>
			<path class="st0" d="M319.5,100.8h-7.1V113h-12.2v-12.2H275v-8.7L300.9,54h11.5v37.1h7.1V100.8z M300.2,91.1v-10
				c0-1.7,0.1-4.1,0.2-7.3c0.1-3.2,0.2-5,0.3-5.5h-0.3c-1,2.2-2.2,4.4-3.6,6.5L286,91.1H300.2z"/>
		</g>
		<g>
			<g>
				<path class="st1" d="M95.5,164.9H87v8.5h-7.4v-8.5h-8.5v-7.4h8.5V149H87v8.5h8.5V164.9z"/>
			</g>
			<g>
				<path class="st1" d="M241.1,168.9h-8.5v8.5h-7.4v-8.5h-8.5v-7.4h8.5V153h7.4v8.5h8.5V168.9z"/>
			</g>
			<g>
				<path class="st1" d="M392.9,130.9h-8.5v8.5H377v-8.5h-8.5v-7.4h8.5V115h7.4v8.5h8.5V130.9z"/>
			</g>
			<g>
				<path class="st1" d="M95.5,303.5H87v8.5h-7.4v-8.5h-8.5v-7.4h8.5v-8.5H87v8.5h8.5V303.5z"/>
			</g>
			<g>
				<path class="st1" d="M416.4,288.5c0-1.9-1.2-3.1-3.9-3.1c-2.9,0-4.7,2-5.7,4.5l-7.3-4.2c2.3-5.5,7.5-8.5,13.4-8.5
					c6,0,12.1,3.7,12.1,10.6c0,7.9-8.5,10.3-8.5,14h-8.5C407.9,295.6,416.4,293.2,416.4,288.5z M407.1,310.7c0-2.8,2.3-5,5-5
					c2.8,0,5,2.3,5,5c0,2.8-2.3,5-5,5C409.4,315.8,407.1,313.5,407.1,310.7z"/>
			</g>
			<g>
				<path class="st1" d="M132.4,113.9c0-1.9-1.2-3.1-3.9-3.1c-2.9,0-4.7,2-5.7,4.5l-7.3-4.2c2.3-5.5,7.5-8.5,13.4-8.5
					c6,0,12.1,3.7,12.1,10.6c0,7.9-8.5,10.3-8.5,14h-8.5C123.9,120.9,132.4,118.5,132.4,113.9z M123.1,136.1c0-2.8,2.3-5,5-5
					c2.8,0,5,2.3,5,5c0,2.8-2.3,5-5,5C125.4,141.1,123.1,138.8,123.1,136.1z"/>
			</g>
			<g>
				<path class="st1" d="M433,101.2c0-1.9-1.2-3.1-3.9-3.1c-2.9,0-4.7,2-5.7,4.5l-7.3-4.2c2.3-5.5,7.5-8.5,13.4-8.5
					c6,0,12.1,3.7,12.1,10.6c0,7.9-8.5,10.3-8.5,14h-8.5C424.6,108.3,433,105.9,433,101.2z M423.8,123.4c0-2.8,2.3-5,5-5
					c2.8,0,5,2.3,5,5c0,2.8-2.3,5-5,5C426,128.4,423.8,126.2,423.8,123.4z"/>
			</g>
			<g>
				<path class="st1" d="M441.5,166.4l-0.7,4.2h5.6l-0.9,5.8h-5.7l-1.3,7.9h-6l1.3-7.9h-4.9l-1.3,7.9h-6l1.3-7.9h-5.6l1-5.8h5.6
					l0.7-4.2h-5.7l1-5.8h5.7l1.3-7.9h6l-1.3,7.9h4.9l1.3-7.9h6l-1.3,7.9h5.6l-1,5.8H441.5z M435.5,166.4h-4.9l-0.7,4.2h4.9
					L435.5,166.4z"/>
			</g>
			<g>
				<path class="st1" d="M287.7,144.4l-0.7,4.2h5.6l-0.9,5.8H286l-1.3,7.9h-6l1.3-7.9h-4.9l-1.3,7.9h-6l1.3-7.9h-5.6l1-5.8h5.6
					l0.7-4.2h-5.7l1-5.8h5.7l1.3-7.9h6l-1.3,7.9h4.9l1.3-7.9h6l-1.3,7.9h5.6l-1,5.8H287.7z M281.7,144.4h-4.9l-0.7,4.2h4.9
					L281.7,144.4z"/>
			</g>
			<g>
				<path class="st1" d="M73.5,349.7l-0.7,4.2h5.6l-0.9,5.8h-5.7l-1.3,7.9h-6l1.3-7.9h-4.9l-1.3,7.9h-6l1.3-7.9h-5.6l1-5.8h5.6
					l0.7-4.2h-5.7l1-5.8h5.7l1.3-7.9h6l-1.3,7.9h4.9l1.3-7.9h6l-1.3,7.9h5.6l-1,5.8H73.5z M67.5,349.7h-4.9l-0.7,4.2h4.9L67.5,349.7
					z"/>
			</g>
			<g>
				<path class="st1" d="M452.9,349.7l-0.7,4.2h5.6l-0.9,5.8h-5.7l-1.3,7.9h-6l1.3-7.9h-4.9l-1.3,7.9h-6l1.3-7.9h-5.6l1-5.8h5.6
					l0.7-4.2h-5.7l1-5.8h5.7l1.3-7.9h6l-1.3,7.9h4.9l1.3-7.9h6l-1.3,7.9h5.6l-1,5.8H452.9z M446.8,349.7H442l-0.7,4.2h4.9
					L446.8,349.7z"/>
			</g>
		</g>
		<g>
			<defs>
				<rect id="SVGID_1_" y="-11.3" width="500" height="500"/>
			</defs>
			<clipPath id="SVGID_2_">
				<use xlink:href="#SVGID_1_"  style="overflow:visible;"/>
			</clipPath>
			<path class="st2" d="M348.5,316.2c-0.6,0.9-2.3,0.8-3.2,0.6c-1.1-0.2-2-0.9-2.9-1.6c-2.6-2-5.3-4.1-7.7-6.4
				c-1.2-1.2-2.7-2.1-3.7-3.4c-0.2-0.3-0.1-1.5-0.1-1.8c0-0.6,0.7-0.5,1.2-0.5c2.7,0.2,5.2,1.7,7.4,3.2c0.9,0.6,1.6,1.3,2.4,1.8
				c1.3,0.9,2.6,1.7,3.8,2.8c0.9,0.8,1.8,1.9,2.4,3c0.3,0.5,0.7,1.3,0.6,1.9C348.6,316.2,348.4,316.5,348.5,316.2z"/>
			<path class="st2" d="M331.7,306.5c-0.6-0.5-0.8-1.3-1-2.1c-0.6-2.4-0.7-4.9-0.9-7.4c-0.2-2,0.1-4.1-0.3-6.2
				c-0.4-1.9-1.3-3.8-1.4-5.7c-0.1-1.1-0.1-2.8,0.5-4c0.2-0.5,0.9-0.5,1.2-0.2c0.2,0.2,0.3,0.4,0.4,0.6c0.2,0.4,0.2,1.2,0.4,1.7
				c0.3,1,0.8,2,1,3c0.2-0.4,0.1-1.2,0.1-2c0-0.2,0.3-0.3,0.4-0.1c0.3,0.9,0.6,2.1,0.7,2.9c0.1,1-0.4,2.3-0.3,3.2
				c0.2,1.7,0.9,3,1.3,4.7c0.7,2.8,2,5.8,1.7,8.7c-0.1,0.7,0.1,2-0.5,2.5C334.4,306.7,332.4,307,331.7,306.5z"/>
			<path class="st3" d="M351.7,311.9c-0.6-0.5-1.6-0.5-2.4-0.7c-1-0.3-2.1-0.8-3-1.3c-0.5-0.3-0.9-0.6-1.5-0.9
				c-0.5-0.2-1.1-0.4-1.5-0.7c-0.4-0.3-0.7-0.7-1.2-0.4c-0.4,0.3-0.8,0.8-1.2,1.1c-0.7,0.6-1.4,1.3-1.8,2.2
				c-0.3,0.6-0.3,1.3-0.6,1.9c0.6,0.3,1,0.8,1.5,1.2c0.7,0.4,1.5,0.8,2.1,1.4c0.5,0.5,0.9,1,1.3,1.6c0.7,0.9,0.5,1.7,0.5,2.8
				c-0.1,1.8-0.6,3.6-0.6,5.3c0.3-0.2,0.6-0.5,0.9-0.7c0.5-0.3,1.1-0.5,1.5-0.9c0.9-0.8,0.9-2.3,1.2-3.4c0.4-1.9,1.1-3.7,2.4-5.2
				c0.6-0.6,1.1-1.2,1.5-2C351.2,312.7,351.4,312.2,351.7,311.9C351.6,312,351.5,312.2,351.7,311.9z"/>
			<g class="st4">
				<path class="st5" d="M134.7,279.1c0-0.2,0.1-0.5,0.1-0.7c0.3-1.9,0.5-3.9,1.3-5.7c0.3-0.8,0.7-1.6,1-2.5c0.3-0.8,0.3-1.8,0-2.6
					c-0.6,0.8-0.9,1.7-1.1,2.6c0-2.1,0.1-4.2,0.4-6.2c-0.2-0.1-0.4,0-0.5,0.1c-0.8,0.4-1.6,1-2.2,1.7c-0.3,0.3-0.6,0.7-0.7,1.1
					c-0.2,0.5-0.2,0.9-0.1,1.4c0.1,1.3,0.7,2.9,0.2,4.1c-0.2,0.6-0.2,1-0.7,2c-0.8,1.5-1.6,3-2.3,4.6c-0.9,1.7-2.9,5.8-2,7.8
					c0.5,1.1,1.2,1.7,2.5,1.5c1.2-0.2,1.9-1.3,2.4-2.4C133.6,284.2,134.5,280.9,134.7,279.1z"/>
				<path class="st5" d="M129.1,307.9c0.3-0.6,0.5-1.2,0.6-1.8c1.5-6,2.7-12.2,2.3-18.5c0-0.7-0.1-1.4-0.4-2
					c-0.3-0.6-0.9-1.2-1.6-1.3c-0.7-0.1-1.4,0.2-1.9,0.8c-0.4,0.5-0.7,1.2-0.9,1.8c-1.8,5.4-2.9,11.1-3,16.9c0,1.4,0.1,2.8,0.9,4
					c0.5,0.7,1.3,1.4,2.2,1.5C128.1,309.2,128.8,308.5,129.1,307.9z"/>
				<path class="st6" d="M130.3,307c0.4-0.7,0.6-1.5,0.9-2.2c0.2-0.6,0.4-1.2,0.5-1.8c0.2-0.5,0.3-1.1,0.4-1.7
					c0.1-0.6,0.2-1.1,0.3-1.7c0.1-1,0.2-1.9,0.3-2.9c-3.3-1.2-6.9-1.4-10.3-0.3c-0.1,1.5-0.1,3.1,0,4.6c0.1,1.5,0.3,3,1,4.4
					c0.6,1.3,1.8,2.7,3.1,3.4C128.1,309.6,129.7,308.2,130.3,307z"/>
			</g>
			<path class="st7" d="M-101.5,402.2c21.2-2.3,98.2-1.7,120.4-2.2c53.7-1.2,99.7-15.6,99.7-15.6"/>
			<g class="st4">
				<path class="st8" d="M67.5,230.4c-46.8,0-78.8-18.4-124-21.8s-114.3,49.1-176,57.1c-61.7,8-148.5-52.6-208.5-52.6"/>
				<path class="st9" d="M161.4,232.1l3.2-59.5c0,0-16.9,0-27.2,0c-16.3,0-23.6,29.6-39.8,38.2c-13.5,7.2-25.3,7.3-32.1,7.3
					c-6.9,0-7.4,12.6-7.4,12.6s0.5,12.6,7.4,12.6c6.9,0,18.7,0.2,32.1,7.3c16.2,8.6,23.6,38.2,39.8,38.2c10.3,0,27.2,0,27.2,0
					l-3.5-56.8L161.4,232.1z"/>
				<path class="st10" d="M196.3,230.8c0-20.4-2.9-38.7-7.5-51.5v-18.4h-15.6c-12.8,0-23.1,31.3-23.1,69.8
					c0,38.6,10.4,69.8,23.1,69.8h15.6v-18.4C193.4,269.5,196.3,251.2,196.3,230.8z"/>
				<ellipse class="st11" cx="187.7" cy="230.8" rx="23.1" ry="69.8"/>
				<g>
					<path class="st12" d="M190.7,204.9c0,5-1.3,9.1-3,9.1c-1.7,0-3-4.1-3-9.1c0-5,1.3-9.1,3-9.1
						C189.4,195.8,190.7,199.9,190.7,204.9z"/>
					<rect x="187.7" y="195.8" class="st12" width="49.5" height="18.1"/>
					<circle class="st12" cx="238.7" cy="204.9" r="9.1"/>
				</g>
				<g>
					<path class="st12" d="M190.7,256.7c0,5-1.3,9.1-3,9.1c-1.7,0-3-4.1-3-9.1c0-5,1.3-9.1,3-9.1
						C189.4,247.7,190.7,251.7,190.7,256.7z"/>
					<rect x="187.7" y="247.7" class="st12" width="49.5" height="18.1"/>
					<circle class="st12" cx="238.7" cy="256.7" r="9.1"/>
				</g>
			</g>
			<path class="st7" d="M385.9,390.9c21.2-2.3,78.1,9.1,100.4,9.1c49,0.1,124.2-11,124.2-11"/>
			<g class="st4">
				<path class="st8" d="M429.7,230.4c46.8,0,91.8,29.8,136.9,26.4c45.1-3.4,125.1-32.4,186.8-24.4c61.7,8,115.7,34.1,184.7-19.2"/>
				<path class="st9" d="M431.8,218.2c-6.9,0-18.7-0.2-32.1-7.3c-16.2-8.6-23.6-38.2-39.8-38.2c-10.3,0-27.2,0-27.2,0l3.7,56.6
					l-0.4,0l-3.2,59.6c0,0,16.9,0,27.2,0c16.3,0,23.6-29.6,39.8-38.2c13.5-7.2,25.3-7.3,32.1-7.3c6.9,0,7.4-12.6,7.4-12.6
					S438.7,218.2,431.8,218.2z"/>
				<path class="st10" d="M300.9,230.8c0-20.4,2.9-38.7,7.5-51.5v-18.4H324c12.8,0,23.1,31.3,23.1,69.8c0,38.6-10.4,69.8-23.1,69.8
					h-15.6v-18.4C303.8,269.5,300.9,251.2,300.9,230.8z"/>
				<ellipse class="st9" cx="309.5" cy="230.8" rx="23.1" ry="69.8"/>
				<g>
					<path class="st12" d="M306.5,204.9c0,5,1.3,9.1,3,9.1c1.7,0,3-4.1,3-9.1c0-5-1.3-9.1-3-9.1
						C307.8,195.8,306.5,199.9,306.5,204.9z"/>
				</g>
				<g>
					<path class="st12" d="M306.5,256.7c0,5,1.3,9.1,3,9.1c1.7,0,3-4.1,3-9.1c0-5-1.3-9.1-3-9.1
						C307.8,247.7,306.5,251.7,306.5,256.7z"/>
				</g>
			</g>
			<g class="st4">
				<path class="st1" d="M182.9,384.8c0,2.7-17.9,4.8-39.9,4.8c-22,0-39.9-2.2-39.9-4.8c0-2.7,17.9-4.8,39.9-4.8
					C165,380,182.9,382.1,182.9,384.8z"/>
				<path class="st5" d="M163.7,285c0.2-0.2,0.4-0.3,0.5-0.5c1.4-1.3,2.9-2.6,4.1-4.2c0.5-0.7,0.9-1.5,1.5-2.2
					c0.6-0.7,1.3-1.3,2.2-1.4c-0.3,0.9-0.9,1.7-1.6,2.4c1.7-1.1,3.4-2.4,5-3.8c0.2,0.1,0.2,0.3,0.3,0.5c0.1,0.9,0.1,1.9-0.1,2.8
					c-0.1,0.4-0.3,0.9-0.5,1.2c-0.3,0.4-0.7,0.7-1.1,0.9c-1.1,0.7-2.7,1-3.5,2.1c-0.4,0.5-0.7,0.7-1.3,1.7c-0.8,1.5-1.7,3-2.5,4.5
					c-0.9,1.7-3.2,5.6-5.4,6c-1.2,0.2-2.1-0.1-2.6-1.2c-0.5-1.1,0-2.2,0.6-3.3C160.1,288.8,162.4,286.2,163.7,285z"/>
				<path class="st5" d="M162.2,294.2c0,0.1-0.1,0.2-0.1,0.3c-0.3,0.6-0.8,1.1-1.3,1.5c-3,2.6-6.2,4.9-9.6,6.8
					c-1.6,0.9-3.2,1.7-4.9,2.4c-1.2,0.5-2.6,1-4,0.7c-0.8-0.2-1.8-0.7-2.2-1.5c-0.4-0.7,0-1.6,0.4-2.2c0.4-0.5,0.9-0.9,1.4-1.3
					c5-3.7,10.3-7.1,16.3-9.1c0.6-0.2,1.3-0.4,2-0.4c0.7,0,1.5,0.4,1.8,1C162.4,293,162.4,293.6,162.2,294.2z"/>
				<path class="st5" d="M140.8,294.3c-0.3,0.7-0.8,1.4-1.5,1.6c-0.2,0-0.9,0-1.6-0.1c-0.2,0-0.3,0-0.5-0.1
					c-0.7-0.1-1.3-0.3-1.5-0.4c-0.5-0.3-1.3-1.7-1.3-1.9c0,0,0-0.1-0.1-0.2c-0.1-0.1-0.1-0.3-0.2-0.4c-0.3-0.4-0.6-1-0.6-1.3
					c0-2.4,1-3,1.9-4.1c0.9-1.2,2.2-2,3.5-2.4c0.7-0.3,1.6-0.5,2.4-0.2c0.7,0.2,0.6,0.7,0.6,1.3C142,289,142,291.7,140.8,294.3z"/>
				<path class="st5" d="M138.7,299.7c-1.7,1.8-4.4,2.7-6.9,2.1c-0.7-0.2-1.4-0.4-2.1-0.5c1-0.6,1.5-1.8,1.7-3
					c0.3-1.3,0.2-2.7-0.1-3.9c-0.1-0.3-0.7-1.4-0.4-1.6c0.2-0.2,1.5,0.4,1.9,0.4c0.4,0,0.8-0.1,1.2-0.3c0.1,0,0.1-0.1,0.2-0.1l0,0
					c0.4-0.2,0.8-0.4,1.3-0.5c0.1,0,0.2-0.1,0.3,0c0.1,0,0.1,0.1,0.2,0.1c0.6,0.5,1.1,1,1.7,1.5c-0.2,0.6-0.3,1.1-0.4,1.7
					c0,0,0,0.1,0,0.1c-0.1,0.5-0.1,1.1-0.1,1.7c0,0.2,0,0.3,0,0.5c0,0.2,0.1,0.4,0.1,0.6C137.4,299.1,138,299.6,138.7,299.7z"/>
				<path class="st13" d="M137.2,295.8c-0.1,0.5-0.1,1.1-0.1,1.7c0,0.2,0,0.3,0,0.5c-0.2-0.1-0.3-0.3-0.4-0.4
					c-0.3-0.2-0.5-0.5-0.7-0.7c-0.7-0.8-1.1-1.7-1.5-2.7c-0.1-0.3-0.2-0.5-0.3-0.8c0-0.2,0-0.3,0-0.5c0,0,0,0,0,0l0,0
					c0.6,0.7,1.1,1.4,1.8,2c0.4,0.3,0.8,0.6,1.2,0.8c0,0,0.1,0,0.1,0.1c0.1,0.1,0.2,0.1,0.4,0.2
					C137.5,295.8,137.3,295.8,137.2,295.8z"/>
				<path class="st14" d="M135.3,295.1c0.5-0.4,0.9-0.8,1.3-1.3c0.8-1.2,1.1-2.6,1.8-3.9c0.5-0.8,1.1-1.5,1.9-2
					c0.6-0.4,1.4-0.7,1.9-1.2c0.9-0.8,1.3-2,1.3-3.1c0-1.2-0.4-2.3-0.8-3.4c-0.4,0.5-1.1,0.7-1.8,0.7c-1.8,0.2-3.7,0.1-5.5,0.3
					c-1.8,0.2-3.7,0.7-4.9,2.1c-1.3,1.5-1.5,3.6-1.5,5.5c0,1,0,2,0.2,2.9c0.3,1.2,0.8,2.4,1.6,3.4
					C132.1,296.8,133.9,296.3,135.3,295.1z"/>
				<path class="st5" d="M138.8,289.5c-0.1-0.2-0.3-0.5-0.6-0.6c-0.3-0.1-0.6-0.1-0.8,0.1c-0.2,0.2-0.2,0.4-0.2,0.6
					c0,0.2,0.1,0.4,0.2,0.6c0.3,0.7,0.6,1.4,1.1,2c0.1,0.1,0.2,0.2,0.3,0.2c0.1,0,0.1-0.1,0.2-0.2c0-0.2,0.2-0.5,0.3-0.7
					c0.1-0.3,0.1-0.5,0.1-0.8c0,0,0,0.1,0,0C139.1,290.5,139,289.9,138.8,289.5z"/>
				<path class="st15" d="M128.2,383.2c-0.1,0.5-0.1,1.1,0,1.5c0.3,1,1.5,1.5,2.5,1.4c1-0.1,2-0.6,2.9-1.2c1.5-0.9,2.9-1.8,4.2-3
					c0.5-0.4,0.9-0.9,1.2-1.5c0.3-0.6,0.3-1.3,0-1.9c-0.5-0.9-1.7-1.1-2.7-0.8c-1,0.2-1.8,0.8-2.7,1.3c-1.2,0.6-2,1-3.2,1.5
					C128.9,381.1,128.4,381.6,128.2,383.2z"/>
				<path class="st16" d="M126.6,334.9c-0.3,3.2,0.3,6.5,0.8,9.7c0.5,3.4,0.9,6.8,1.1,10.2c0.1,1,0.2,2.1,0,3.1
					c-0.2,1.7-0.8,3.3-1.2,5c-0.6,2.8-0.3,5.7,0,8.6c0.2,1.9,0.4,3.8,0.6,5.7c0.2,1.8,0.4,3.6,0.9,5.3c1.6,0.6,2.5-0.1,3.1-0.6
					c0.3-5,1.1-9.9,2.4-14.8c0.4-1.5,0.9-3,1.1-4.6c0.3-1.7,0.3-3.5,0.5-5.3c0.4-6.7,1.9-13.4,1.3-20.1c-0.2-2.6-0.8-5.2-1.3-7.7
					c0-0.2-0.1-0.5-0.3-0.6c-0.2-0.2-0.5-0.2-0.7-0.3c-1.4-0.2-2.8-0.4-4.1-0.6c-0.8-0.1-1.9-0.5-2.6,0.2c-0.7,0.7-0.8,2.3-1,3.1
					C126.9,332.4,126.7,333.7,126.6,334.9z"/>
				<path class="st15" d="M141.9,385.9c-0.1,0.5-0.2,1.1,0,1.6c0.3,1.1,1.5,1.7,2.7,1.6c1.1,0,2.2-0.6,3.2-1.1
					c1.6-0.8,3.1-1.7,4.6-2.6c0.9-0.6,1.7-1.2,2.2-2.1c0.4-0.9,0.3-2.2-0.6-2.7c-1-0.6-2.1,0-3.2,0.4c-1.1,0.4-2.3,0.7-3.5,0.9
					c-1.2,0.2-3.2,0.2-4.3,0.8C142,383.2,142.1,384.9,141.9,385.9z"/>
				<path class="st16" d="M134.6,340.9c0.7,1,1.5,1.9,2.1,3c0.9,1.4,1.4,3,1.9,4.6c1.4,4.4,2.8,8.8,2.9,13.4
					c0.1,3.2-0.6,6.4-0.6,9.6c-0.1,2.1,0.1,4.3,0.3,6.4c0.2,2.2,0.4,4.4,0.6,6.5c1.8,0.2,3.6-0.2,5.2-1.1
					c-0.3-5.4,0.3-10.8,1.2-16.1c0.4-2.6,1-5.1,1.2-7.7c0.4-4.8-0.2-9.6-0.8-14.3c-0.7-5.9-1.5-11.9-3.5-17.4
					c0.1,0.4-9.9,1.3-10.8,1.4c-3.2,0.3-2.3,4.2-1.8,6.5C132.8,337.5,133.5,339.3,134.6,340.9z"/>
				<path class="st17" d="M132.3,354.5c0.3,1.1,0.7,2.2,0.8,3.3c0.2,1.3,0.1,2.6,0,3.9c-0.1,1.5-0.3,2.9-0.4,4.4
					c-0.3,3.8-0.6,7.6-1.2,11.4c-0.2,1.5,0.3,2.7,0.4,4.4c1.5-4.8,2.2-9.3,3.1-14.2c1-5.6,1.3-11.2,1.6-16.9
					c0.1-1.6,0.2-3.3,0.3-4.9c0-0.8,0.1-1.7-0.3-2.4c-0.4-0.7-1.2-1.1-1.9-1.6c-1.8-1.1-3-2.8-4.5-4.1c-0.6,0.8,0,2.7,0,3.6
					c0.1,1.5,0.3,2.9,0.4,4.4C130.9,348.8,131.5,351.7,132.3,354.5z"/>
				<path class="st6" d="M145.6,317.8c0.1-1,0.3-2,0.3-3c0-1.8-0.5-3.6-1.1-5.3c-0.7-2.3-1.4-4.7-2.1-7c-0.3-0.9-0.5-1.7-1-2.5
					c-1.1,0.2-2.3,0.1-3.4-0.2l0.2,0.1c-1.5,1.3-3.6,2-5.6,1.9c0,0,0,0,0,0c-0.2-0.1-0.6-0.1-0.9-0.2c-0.2-0.1-0.5-0.3-0.7-0.4
					c-0.3-0.2-0.7-0.7-0.6-1.1c-0.6,0.5-1.1,0.6-1.9,0.7c-0.6,0-1.2,0.1-1.7,0.5c-0.8,0.7-1.2,1.7-1.3,2.6c0,0,0,0.1,0,0.1
					c-0.2,0.9-0.2,1.8-0.1,2.7c0.2,1.9,0.4,3.7,0.8,5.5c0.3,1.1,0.7,2.2,0.9,3.4c0.8,4.6-1.1,9.4-0.2,14c0.6,0,1,0.4,1.5,0.7
					c1.5,1.2,3.5,1.6,5.4,1.6s3.8-0.2,5.7-0.3c2.2-0.1,4.6,0.1,6.3-1.3C145.5,326.1,145.2,321.9,145.6,317.8z"/>
				<path class="st18" d="M141.4,301.5c-0.6-0.4-1.4,0-1.8,0.6c-0.4,0.6-0.5,1.3-0.5,2c-0.1,4.2,1.2,8.3,1.5,12.4
					c0.1,0.9,0.1,1.8-0.1,2.6c-0.2,0.8-0.7,1.6-0.9,2.4c-0.5,1.6-0.4,3.3-0.1,5c0.3,1.7,0.8,3.3,0.9,5c2.1-0.1,4.1-0.5,6.1-1.3
					c0.1,0,0.3-0.1,0.3-0.2c0.1-0.1,0-0.3,0-0.4c-0.8-3.9-0.7-8-0.5-12c0.1-1,0.1-2,0.1-3c-0.1-0.9-0.3-1.9-0.5-2.8
					c-0.5-2.2-1.1-4.5-2.5-6.2c-0.5-0.6-1.2-1.2-1.7-1.8C141.2,303.1,141,302.2,141.4,301.5c0.1,0.2,0.3,0.5,0.5,0.8"/>
				<path class="st6" d="M138.9,301.9c0.5-0.7,1.1-1.2,1.6-1.8c0.5-0.4,0.9-0.9,1.4-1.3c0.4-0.4,0.8-0.8,1.3-1.1
					c0.4-0.3,0.9-0.7,1.4-1c0.8-0.5,1.6-1.1,2.4-1.6c2.5,2.4,4.3,5.6,4.8,9.1c-1.3,0.8-2.7,1.4-4.1,2c-1.4,0.6-2.8,1-4.3,1
					c-1.5,0-3.2-0.4-4.4-1.3C137.7,305.1,138.1,303,138.9,301.9z"/>
				<path class="st18" d="M137.3,298C137.4,298.1,137.3,298,137.3,298C137.3,298,137.3,298,137.3,298z"/>
			</g>
			<g class="st4">
				<path class="st1" d="M395.1,390.9c0,2.7-17.9,4.8-39.9,4.8c-22,0-39.9-2.2-39.9-4.8c0-2.7,17.9-4.8,39.9-4.8
					C377.3,386.1,395.1,388.2,395.1,390.9z"/>
				<path class="st19" d="M345,311.3c0.4,0.2,0.9,0.2,1.4,0.2c0.9,0,1.8-0.1,2.7-0.3c1.5-0.4,2.6-1.3,3.9-2c0.4-0.2,0.8-0.5,1.1-0.7
					c0.2-0.1,0.5-0.2,0.6-0.3c-0.3-0.2-0.7,0-1.1-0.2c-1-0.5-1.6-1.5-1.9-2.5c-0.1-0.4-0.2-0.8-0.4-1.2c-0.1-0.3-0.1-0.6-0.2-0.8
					c0-0.1,0-0.3-0.1-0.5c0-0.5,0-1.1,0.1-1.5c0-0.1,0.1-0.1,0.1-0.2c-0.2,0-0.4-0.2-0.6-0.2c-0.3,0-0.6,0.4-0.8,0.5
					c-0.5,0.4-1,0.9-1.7,1.1c-0.9,0.2-1.9,0.5-2.9,0.4c0.3,0.5,0.5,1.1,0.6,1.7c0,0.1,0,0.1,0,0.2c0.1,0.6,0.2,1.1,0.2,1.7
					c0,0,0,0,0,0.1c0,0.6-0.1,1.2-0.3,1.8C345.7,309.4,345.5,310.4,345,311.3z"/>
				<path class="st5" d="M343.2,295.7c-0.1,0.7-0.5,1.3-0.5,2c-0.1,1,0,2.1,0.3,3.1c0.6,1.9,2,4,3.5,5.3c2.3,2,4.5-1.8,5.1-3.8
					c0.5-1.6,0.9-3.9,0-5.4c-0.7-1.2-1.8-2.5-3.3-2.9c-1-0.3-2.4-0.1-3.3,0.4C344.2,294.7,343.7,295.8,343.2,295.7z"/>
				<path class="st20" d="M350.6,298.5c-1.5-2-3.7-1.3-4.6-1.4c-1.7-0.2-2.8-1.6-3-3.2c-0.1-0.8-0.2-2,0.1-2.8
					c0.7,0.2,1.2,0.6,2,0.4c0.9-0.2,1.5-0.5,2.4-0.6c1.7-0.1,3.6,0.3,4.7,1.6c1.5,1.7,2.2,4,2.1,6.3c0,0.7-1.8,6.4-3,5.5
					c-0.4-0.3-0.2-2.7-0.3-3.3C351,300.4,350.9,298.8,350.6,298.5z"/>
				<path class="st20" d="M344,293.6c-1.5-0.1-2.4,1.9-2.6,3.3c-0.1,1.3,0.4,2.7,0.8,3.9c0.2,0.6,0.5,1.3,0.9,1.9
					c0.1,0.2,0.7,1.3,1,1.3c0.5-0.1-0.3-1.6-0.4-1.8c-0.3-0.8-0.6-1.7-0.7-2.6c-0.1-1.3-0.2-2.6,0.4-3.8
					C344,294.9,344.3,294.5,344,293.6z"/>
				<path class="st5" d="M350.6,299.4c0.2-0.5,0.2-0.9,0.5-1.2c0.3-0.2,0.6-0.3,0.9,0c0.6,0.7-0.2,1.6-0.5,2.1
					c-0.2,0.3-0.4,0.6-0.6,0.9c-0.1-0.4-0.1-0.7-0.2-1.1C350.8,299.9,350.7,299.4,350.6,299.4z"/>
				<path class="st21" d="M358.9,383.5c0.4,0.8-0.1,2.1,0.1,3c0.1,0.9,0.8,1.6,1.3,2.3c0.8,1.1,3,3,2.3,4.5
					c-0.8,1.8-3.1,1.1-4.3,0.2c-1.2-0.9-1.6-2.5-2.6-3.7c-0.8-0.9-0.8-1.7-0.6-2.9c0.2-1.1,0.2-2.2,0.3-3.4c0.7-0.1,1.6,0.1,2.3,0.1
					C358,383.7,359,383.7,358.9,383.5z"/>
				<path class="st21" d="M348.6,383.3c0.1,1.1-0.2,2.2,0,3.3c0.2,0.9,1,2,0.8,3c-0.2,1-1.5,1-2.4,1.3c-0.9,0.3-1.5,0.8-2,1.6
					c-1.1,1.5-3.9,1.9-5.3,0.4c-0.7-0.7-0.8-1.9-0.1-2.5c0.7-0.6,1.8-0.6,2.7-1.1c2.2-1.3,3.3-3.3,3.2-5.9c1.1,0.1,2.1,0.3,3.1,0.1
					C348.5,383.6,348.5,383.7,348.6,383.3z"/>
				<path class="st16" d="M356.8,332.5c0.9,0.4,1.4,2.8,1.8,3.8c0.6,1.5,1,3.1,1.2,4.6c0.6,4.4,0,8.7-0.5,13.1
					c-0.2,1.7-0.5,3.4-0.6,5.2c-0.1,1.8,0.4,4.1,1,5.7c0.7,1.8,1.1,5.1,0.9,7c-0.3,2-0.1,2.2-0.3,4.2c-0.2,1.9-0.4,3.7-0.5,5.6
					c0,0.7-0.1,1.4-0.1,2.1c0,0.8-0.2,1.5-0.2,2.2c0,0.1-0.1,0.2-0.2,0.2c-1.6,0-3.6,0-5-0.4c-0.1,0-0.1-0.1-0.1-0.1
					c-0.4-3.3-1-6.6-1.7-9.8c-1-5-2-10.1-2.9-15.1c-0.9-4.7-1.9-9.5-2.5-14.3c-0.3-2.3-0.4-4.5-0.4-6.8c0-1.1,0-2.2,0.1-3.3
					c0-0.5-0.1-1.4,0.3-1.7c0.5-0.3,2.3-0.1,2.9-0.2c1.1-0.1,2.1-0.2,3.2-0.5c1.3-0.4,2.7-0.8,4-1.2
					C356.8,332.7,356.5,332.8,356.8,332.5z"/>
				<path class="st22" d="M350.4,334.5c0,0,0.1,0,0.1,0C350.5,334.5,350.5,334.5,350.4,334.5z"/>
				<path class="st16" d="M339.1,348.8c0,4.9,1,9.8,2,14.6c1.1,4.9,1.9,9.8,2.6,14.7c0.3,1.9,0.4,3.8,0.7,5.7
					c0.1,0.3,0.1,1.1,0.3,1.4c0.3,0.5,1.1,0.3,1.8,0.3c0.6,0,1.3,0.1,1.9,0.1c0.8-0.1,0.9-0.5,1-1.3c0.4-3.1,0.5-5.4,0.6-7.8
					c0.1-1.9,0.3-3.7,0.2-5.6c0-0.1,0-0.2,0-0.4c-0.4-3.1-0.8-6.2-1.2-9.3c-0.2-1.3-0.2-2.5-0.1-3.8c0.1-1.6,0.3-3.1,0.4-4.7
					c0.4-5.8-0.2-11.7,0.9-17.4c0-0.2,0.1-0.6,0.2-0.7c-3.1,0-7.6,1.9-10.3-0.3c0.1,2.5-0.7,4.8-0.8,7.2
					C339.2,343.9,339.1,346.4,339.1,348.8z"/>
				<path class="st23" d="M339.5,334.5c0.1-2.5,0.3-5,0.3-7.4c0-2.4,0-4.8,0.2-7.1c0.1-1,0.2-2.1,0-3.1c-0.2-1.1-0.3-2.1-0.3-3.2
					c0-1-0.1-3.1,1-3.5c0.8-0.4,1.6-0.7,2.4-1.1c0.9-0.4,2-1.2,3-1.3c0,0.2,0,0.4,0,0.5c0,0,0,0,0,0c0.1,1.2,1.2,1.6,2.2,1.8
					c1.4,0.2,2.6-0.1,3.6-1.1c0.4-0.4,0.8-1,0.9-1.5c0.6,0.3,1.2,0.4,1.8,0.4c0.3,0.2,0.7,0.3,1,0.4c0.6,0.2,1.2,0.4,1.9,0.6
					c0.5,0.4,1.1,0.7,1.8,0.8c0.4,0.2,0.8,0.5,1.2,0.7c0.1,0.2,0.1,0.5,0.2,0.7c0.3,1.6,0.5,3.1-0.4,4.5c-0.4,0.6-2.5,3.9-2.5,4.2
					c-0.1,0.6,0,1.4,0,1.9v0.3c0,0.8,0,1.6,0,2.3c0,2.8,0.5,5.6,1,8.4c0.2,1,0.3,2,0.6,3c0,0.2,0.1,0.3,0.1,0.5
					c0.2,0.6,0.4,1.5,0.3,2.2c-0.3,0-0.7,0.1-1.1,0.2c-1.4,0.3-2.7,0.9-4,1.1c-2.3,0.3-4.6,0.4-6.9,0.4c-2.5,0-5.6,0.7-7.8-0.9
					c-0.5-0.3-0.3-0.9-0.3-1.5C339.6,336.6,339.5,335.5,339.5,334.5z"/>
				<path class="st5" d="M355.7,313.9c0.8,0.7,2.5,0.1,3.3-0.3c1-0.5,1.8-1.5,2.5-2.4c2.1-2.8,4.2-5.6,6.1-8.6
					c0.9-1.5,2.2-2.9,2.8-4.5c0.1-0.4-0.2-1.5-0.3-1.9c-0.1-0.6-0.8-0.3-1.3-0.2c-2.7,0.9-4.7,3.2-6.6,5.3c-0.7,0.8-1.3,1.7-2,2.5
					c-1.1,1.2-2.2,2.5-3.1,3.9c-0.7,1.1-1.3,2.4-1.6,3.6c-0.2,0.6-0.4,1.5-0.1,2.1C355.5,313.9,355.8,314.1,355.7,313.9z"/>
				<path class="st5" d="M369.7,298.8c0.7-0.5,0.8-1.3,1-2.1c0.6-2.4,0.8-4.9,1.1-7.4c0.2-2,0-4.1,0.4-6.2c0.4-1.9,1.3-3.8,1.5-5.7
					c0.1-1.1,0.2-2.8-0.4-4c-0.2-0.5-0.9-0.6-1.2-0.2c-0.2,0.2-0.3,0.4-0.4,0.6c-0.2,0.4-0.3,1.2-0.4,1.7c-0.3,1-0.8,2-1,3
					c-0.2-0.4-0.1-1.2,0-2c0-0.2-0.3-0.3-0.4-0.1c-0.3,0.9-0.6,2.1-0.7,2.9c-0.1,1,0.4,2.3,0.3,3.2c-0.2,1.7-0.9,3-1.4,4.7
					c-0.8,2.8-2.1,5.8-1.9,8.7c0.1,0.7-0.1,2,0.5,2.5C367,298.9,369,299.2,369.7,298.8z"/>
				<path class="st22" d="M338.8,321.2C338.8,321.2,338.7,321.2,338.8,321.2C338.7,321.2,338.7,321.3,338.8,321.2z"/>
				<path class="st17" d="M345.9,349.6c0.2,2.5,0.6,5.1,1.4,7.5c0.7,1.8,1,3.8,1.1,5.8c0,0.8-0.1,1.7-0.1,2.5c0,1,0.1,1.9,0.3,2.9
					c0.2,0.9,0.5,1.7,0.8,2.6c0.2,0.6,0.4,1.2,0.7,1.7c0-0.6,0-1.1,0-1.7c0-0.1,0-0.2,0-0.4c-0.4-3.1-0.8-6.2-1.2-9.3
					c-0.2-1.3-0.2-2.5-0.1-3.8c-0.2-1-0.4-2.1-0.5-3.2c-0.1-1.1-0.3-2.1-0.4-3.2c0-1,0-2.6-0.4-3.5c-0.3-0.8-1.3-1.1-1.9-1.6
					C345.6,347.1,345.8,348.4,345.9,349.6z"/>
				<path class="st23" d="M365.6,305.5c-0.3-0.4-0.8-0.8-1.2-1.2c-0.4-0.4-0.9-0.8-1.3-1.3c-0.3-0.2-0.5-0.4-0.8-0.6
					c-0.3-0.2-0.9-0.3-1.1-0.6c-0.2,0.2-0.8,0.8-1.2,1.1c-0.6,0.5-1.2,0.9-1.8,1.5c-0.6,0.7-1.4,1.3-2.1,1.8c-0.9,0.7-2,1.3-3.1,1.5
					c-0.2,0.3-0.3,0.7-0.5,1c-0.2,0.3-0.4,0.6-0.7,0.9c0,0,0,0.1,0,0.1c0,0.6-0.1,1.1-0.2,1.6c-0.1,0.6-0.3,1.1-0.1,1.7
					c0.5,1.3,1.4,2.2,2.3,3.1c1.1,1.1,1.9,2.3,2.8,3.5c0.1,0.2,0.2,0.4,0.3,0.6c0.1-0.5,0.2-0.9,0.4-1.4c0.6-1.2,1.6-2.5,2.6-3.4
					c0.1-0.1,0.2-0.1,0.3-0.2c0.4-0.6,0.8-1.3,1.2-1.9c0.7-1.1,1.1-2.3,1.7-3.4c0.4-0.7,0.9-1.4,1.3-2.1c0.3-0.5,0.6-1.1,0.9-1.6
					C365.8,306,365.9,305.9,365.6,305.5z"/>
			</g>
		</g>
	</g>
</g>
<g id="DESIGNED_BY_FREEPIK">
</g>
</svg>
