<?xml version="1.0" encoding="utf-8"?>
<!-- Generator: Adobe Illustrator 24.2.1, SVG Export Plug-In . SVG Version: 6.00 Build 0)  -->
<svg version="1.1" xmlns="http://www.w3.org/2000/svg" xmlns:xlink="http://www.w3.org/1999/xlink" x="0px" y="0px"
	 viewBox="0 0 500 500" style="enable-background:new 0 0 500 500;" xml:space="preserve">
<style type="text/css">
	.st0{fill:#EBEBEB;}
	.st1{fill:#E0E0E0;}
	.st2{fill:#F5F5F5;}
	.st3{fill:#E6E6E6;}
	.st4{fill:#F0F0F0;}
	.st5{fill:#FFFFFF;}
	.st6{fill:#FAFAFA;}
	.st7{opacity:0.6;fill:#E0E0E0;}
	.st8{display:none;}
	.st9{display:inline;}
	.st10{fill:#407BFF;}
	.st11{opacity:0.9;fill:#FFFFFF;}
	.st12{opacity:0.8;fill:#FFFFFF;}
	.st13{opacity:0.3;fill:#FFFFFF;}
	.st14{opacity:0.3;}
	.st15{fill:#263238;}
	.st16{fill:#803E3C;}
	.st17{fill:#7F3E3B;}
	.st18{fill:#630F0F;}
	.st19{opacity:0.2;}
	.st20{opacity:0.4;}
	.st21{opacity:0.5;}
	.st22{opacity:0.4;fill:#FFFFFF;}
</style>
<g id="Background_Complete">
	<g>
		<rect y="382.4" class="st0" width="500" height="0.3"/>
		<rect x="428.2" y="398.5" class="st0" width="21.7" height="0.3"/>
		<rect x="310.6" y="393.3" class="st0" width="34.1" height="0.3"/>
		<rect x="396.6" y="389.2" class="st0" width="44.5" height="0.3"/>
		<rect x="161.9" y="394.3" class="st0" width="11.1" height="0.3"/>
		<rect x="114.6" y="394.3" class="st0" width="38.4" height="0.3"/>
		<rect x="66.3" y="390" class="st0" width="27.7" height="0.3"/>
		<path class="st0" d="M237,337.8H43.9c-3.1,0-5.7-2.6-5.7-5.7V60.7c0-3.1,2.6-5.7,5.7-5.7H237c3.1,0,5.7,2.6,5.7,5.7v271.4
			C242.7,335.2,240.2,337.8,237,337.8z M43.9,55.2c-3,0-5.5,2.4-5.5,5.5v271.4c0,3,2.4,5.5,5.5,5.5H237c3,0,5.5-2.4,5.5-5.5V60.7
			c0-3-2.4-5.5-5.5-5.5H43.9z"/>
		<path class="st0" d="M453.3,337.8H260.2c-3.1,0-5.7-2.6-5.7-5.7V60.7c0-3.1,2.6-5.7,5.7-5.7h193.1c3.1,0,5.7,2.6,5.7,5.7v271.4
			C459,335.2,456.5,337.8,453.3,337.8z M260.2,55.2c-3,0-5.5,2.4-5.5,5.5v271.4c0,3,2.4,5.5,5.5,5.5h193.1c3,0,5.5-2.4,5.5-5.5V60.7
			c0-3-2.4-5.5-5.5-5.5H260.2z"/>
	</g>
	<g>
		<g>
			<path class="st1" d="M115,174.6c11.5,0,20.9-9.4,20.9-20.9c0-11.5-9.4-20.9-20.9-20.9h-2.6v41.8H115z"/>
			<circle class="st2" cx="112.4" cy="153.7" r="20.9"/>
			<path class="st1" d="M111.5,156.3c-15.4,0-28-12.6-28-28v-16.7c0-1.5,1.2-2.6,2.6-2.6c1.5,0,2.6,1.2,2.6,2.6v16.7
				c0,12.5,10.2,22.7,22.7,22.7c1.5,0,2.6,1.2,2.6,2.6S112.9,156.3,111.5,156.3z"/>
			<path class="st2" d="M62.8,126.4h46.5c3.2,0,5.5-3,4.7-6.1l-4-15.2c-0.6-2.1-2.5-3.6-4.7-3.6H66.9c-2.2,0-4.1,1.5-4.7,3.6
				l-4,15.2C57.3,123.3,59.6,126.4,62.8,126.4z"/>
		</g>
		<g>
			<path class="st1" d="M410.3,174.6c11.5,0,20.9-9.4,20.9-20.9c0-11.5-9.4-20.9-20.9-20.9h-2.6v41.8H410.3z"/>
			<circle class="st2" cx="407.7" cy="153.7" r="20.9"/>
			<path class="st1" d="M406.8,156.3c-15.4,0-28-12.6-28-28v-16.7c0-1.5,1.2-2.6,2.6-2.6c1.5,0,2.6,1.2,2.6,2.6v16.7
				c0,12.5,10.2,22.7,22.7,22.7c1.5,0,2.6,1.2,2.6,2.6S408.2,156.3,406.8,156.3z"/>
			<path class="st2" d="M358.1,126.4h46.5c3.2,0,5.5-3,4.7-6.1l-4-15.2c-0.6-2.1-2.5-3.6-4.7-3.6h-38.5c-2.2,0-4.1,1.5-4.7,3.6
				l-4,15.2C352.6,123.3,354.9,126.4,358.1,126.4z"/>
		</g>
		<g>
			<g>
				
					<rect x="134" y="256.9" transform="matrix(-1 -1.224647e-16 1.224647e-16 -1 283.169 572.7766)" class="st3" width="15.2" height="58.9"/>
				<polygon class="st4" points="92.8,315.9 143.2,315.9 150.8,246.9 100.4,246.9 				"/>
				<polygon class="st2" points="87.3,315.9 139.4,315.9 147,246.9 94.9,246.9 				"/>
				<polygon class="st5" points="135.6,310.4 142.1,252.3 98.7,252.3 92.3,310.4 				"/>
				<path class="st2" d="M126.7,296.3l0.3-2.4c1.6-14.6-7.5-27.6-19.3-27.6l0,0l-0.3,2.4C105.8,283.3,114.9,296.3,126.7,296.3
					L126.7,296.3z"/>
			</g>
			<g>
				<g>
					
						<rect x="59.1" y="315.9" transform="matrix(-1 -1.224647e-16 1.224647e-16 -1 163.0067 698.2517)" class="st3" width="44.8" height="66.5"/>
					<polygon class="st4" points="63.6,382.4 59.1,382.4 59.1,369.6 68.3,369.6 					"/>
					
						<rect x="184.8" y="315.9" transform="matrix(-1 -1.224647e-16 1.224647e-16 -1 414.3461 698.2517)" class="st3" width="44.8" height="66.5"/>
					
						<rect x="59.1" y="315.9" transform="matrix(-1 -1.224647e-16 1.224647e-16 -1 247.7738 690.3794)" class="st4" width="129.6" height="58.7"/>
					<polygon class="st4" points="184.2,382.4 188.7,382.4 188.7,369.6 179.5,369.6 					"/>
					
						<rect x="62.6" y="319.5" transform="matrix(-1 -1.224647e-16 1.224647e-16 -1 247.7738 662.7214)" class="st3" width="122.6" height="23.7"/>
					<path class="st4" d="M115.7,335h16.4c7.1,0,13.9-2.9,18.8-8.1l0,0H96.9l0,0C101.8,332,108.6,335,115.7,335z"/>
					
						<rect x="62.6" y="347" transform="matrix(-1 -1.224647e-16 1.224647e-16 -1 247.7738 717.7244)" class="st3" width="122.6" height="23.7"/>
					<path class="st4" d="M115.7,362.5h16.4c7.1,0,13.9-2.9,18.8-8.1l0,0H96.9l0,0C101.8,359.5,108.6,362.5,115.7,362.5z"/>
				</g>
			</g>
			<g>
				<path class="st3" d="M180.5,313.1h1.2c0-2.4,0-8.4,0.1-22.3c0.2-25.1,0.6-26.7,0.6-26.7l-2.8,11.6
					C177.9,288.6,180.1,301.5,180.5,313.1z"/>
				<path class="st3" d="M178.2,274c-4-4.7-12.5-6.1-21.1-7.3c-3.4-0.5,9,7.3,15,12.9c4.7,4.3,7.7,5.5,9,9.8
					C181.7,284,181.6,278.1,178.2,274z"/>
				<path class="st3" d="M183.5,282.5c4-4.7,12.5-6.1,21.1-7.3c3.4-0.5-9,7.3-15,12.9c-4.7,4.3-7.7,5.5-9,9.8
					C179.9,292.5,180,286.6,183.5,282.5z"/>
				<path class="st3" d="M181.8,263c3-5.7,10.5-11,18.9-13c3.3-0.8-7.6,10.4-11.8,17.7c-3.2,5.6-7.5,12.2-8.2,17
					C179.6,275.3,178.8,268.7,181.8,263z"/>
				<g>
					<path class="st4" d="M181.4,315.9L181.4,315.9c-3.5,0-6.5-1.8-6.7-4.1l-0.6-3.9h14.5l-0.6,3.9
						C187.9,314.1,185,315.9,181.4,315.9z"/>
					<polygon class="st4" points="189.6,309.4 173.2,309.4 172.7,305.1 190.1,305.1 					"/>
				</g>
			</g>
		</g>
		<g>
			<g>
				<g>
					<g>
						
							<rect x="169.5" y="80.6" transform="matrix(-1 -1.224647e-16 1.224647e-16 -1 499.2862 307.3146)" class="st3" width="160.2" height="146.1"/>
						
							<rect x="165.9" y="80.6" transform="matrix(-1 -1.224647e-16 1.224647e-16 -1 494.1139 307.3146)" class="st2" width="162.2" height="146.1"/>
						
							<rect x="180.5" y="79" transform="matrix(-1.836970e-16 1 -1 -1.836970e-16 400.7143 -93.3997)" class="st6" width="133" height="149.3"/>
						<polygon class="st5" points="303.4,220.2 244.6,87.1 224.7,87.1 283.4,220.2 						"/>
						<polygon class="st5" points="277.8,220.2 219,87.1 205.3,87.1 264,220.2 						"/>
						
							<rect x="157.5" y="149.8" transform="matrix(-1.836970e-16 1 -1 -1.836970e-16 377.6407 -70.326)" class="st3" width="133" height="7.7"/>
						
							<rect x="208.8" y="149.8" transform="matrix(-1.836970e-16 1 -1 -1.836970e-16 428.9601 -121.6454)" class="st3" width="133" height="7.7"/>
						
							<rect x="150.5" y="148.4" transform="matrix(-1.836970e-16 1 -1 -1.836970e-16 374.8722 -68.2713)" class="st2" width="142.1" height="9.8"/>
						
							<rect x="201.9" y="148.4" transform="matrix(-1.836970e-16 1 -1 -1.836970e-16 426.1917 -119.5908)" class="st2" width="142.1" height="9.8"/>
						
							<rect x="106.2" y="153.3" transform="matrix(-1.836970e-16 1 -1 -1.836970e-16 326.4071 -19.0926)" class="st3" width="133" height="0.7"/>
					</g>
				</g>
			</g>
			<g>
				<g>
					<path class="st3" d="M163.2,72.2h173.6c0.5,0,0.8,0.4,0.8,0.8l0,0c0,0.5-0.4,0.8-0.8,0.8H163.2c-0.5,0-0.8-0.4-0.8-0.8l0,0
						C162.4,72.5,162.8,72.2,163.2,72.2z"/>
					<path class="st3" d="M329.7,77.7L329.7,77.7c0.6,0,1.1-0.5,1.1-1.1v-2.4c0-0.6-0.5-1.1-1.1-1.1l0,0c-0.6,0-1.1,0.5-1.1,1.1v2.4
						C328.6,77.2,329.1,77.7,329.7,77.7z"/>
					<path class="st3" d="M175.8,77.7L175.8,77.7c0.6,0,1.1-0.5,1.1-1.1v-2.4c0-0.6-0.5-1.1-1.1-1.1l0,0c-0.6,0-1.1,0.5-1.1,1.1v2.4
						C174.7,77.2,175.2,77.7,175.8,77.7z"/>
				</g>
				
					<rect x="163.5" y="73" transform="matrix(-1 -1.224647e-16 1.224647e-16 -1 489.0943 260.4517)" class="st7" width="162.1" height="114.4"/>
			</g>
		</g>
		<g>
			<g>
				<path class="st6" d="M340.3,283.7h-28c-3,0-5.4-2.4-5.4-5.4v-12.9c0-3,2.4-5.4,5.4-5.4h28c3,0,5.4,2.4,5.4,5.4v12.9
					C345.7,281.3,343.3,283.7,340.3,283.7z"/>
				<path class="st3" d="M343.9,260.7h-35.1c-1,0-1.8-0.8-1.8-1.8v-1.5c0-1,0.8-1.8,1.8-1.8h35.1c1,0,1.8,0.8,1.8,1.8v1.5
					C345.7,259.9,344.9,260.7,343.9,260.7z"/>
			</g>
			<g>
				<path class="st4" d="M307.5,310c0,0,0.5,16.7,19.9,16.7c19.4,0,19.9-16.7,19.9-16.7H307.5z"/>
			</g>
			<g>
				<path class="st4" d="M351.8,310c0,0,0.5,16.7,19.9,16.7c19.4,0,19.9-16.7,19.9-16.7H351.8z"/>
			</g>
			<g>
				<path class="st4" d="M382,283.7h-38.4c-4.1,0-7.4-3.3-7.4-7.4v-19.6c0-4.1,3.3-7.4,7.4-7.4H382c4.1,0,7.4,3.3,7.4,7.4v19.6
					C389.4,280.4,386.1,283.7,382,283.7z"/>
				<path class="st2" d="M387,250.2h-48.2c-1.4,0-2.5-1.1-2.5-2.5v-2c0-1.4,1.1-2.5,2.5-2.5H387c1.4,0,2.5,1.1,2.5,2.5v2
					C389.4,249.1,388.3,250.2,387,250.2z"/>
			</g>
			<g>
				
					<rect x="292.9" y="299.8" transform="matrix(-1 -1.224647e-16 1.224647e-16 -1 590.8305 682.1528)" class="st3" width="5" height="82.6"/>
				<g>
					<g>
						<rect x="411.1" y="283.7" class="st3" width="27.3" height="16.1"/>
						
							<rect x="275.4" y="283.7" transform="matrix(-1 -1.224647e-16 1.224647e-16 -1 686.5741 583.4267)" class="st2" width="135.7" height="16.1"/>
					</g>
				</g>
				<g>
					<g>
						<rect x="411.1" y="326.6" class="st3" width="27.3" height="16.1"/>
						
							<rect x="275.4" y="326.6" transform="matrix(-1 -1.224647e-16 1.224647e-16 -1 686.5741 669.3197)" class="st2" width="135.7" height="16.1"/>
					</g>
				</g>
				
					<rect x="428.6" y="299.8" transform="matrix(-1 -1.224647e-16 1.224647e-16 -1 862.1924 682.1528)" class="st3" width="5" height="82.6"/>
				
					<rect x="406.1" y="299.8" transform="matrix(-1 -1.224647e-16 1.224647e-16 -1 817.2168 682.1528)" class="st2" width="5" height="82.6"/>
				
					<rect x="275.4" y="299.8" transform="matrix(-1 -1.224647e-16 1.224647e-16 -1 555.9313 682.1528)" class="st2" width="5" height="82.6"/>
			</g>
		</g>
	</g>
</g>
<g id="Background_Simple" class="st8">
	<g class="st9">
		<path class="st10" d="M424,265.3c10.1,46-18.1,75.7-57.1,74.3c-18.7-0.7-41-21.2-59.4-25.8c-24-6-44.8,1.8-67.7,2.9
			c-57,2.8-56.3-20.5-94.7-50.5c-27-21.1-70.6-18.8-85-55.7c-17.7-45.2,33-67,71.5-60.3c44.2,7.7,56.5-47.4,124.1-41.3
			C322,114.9,409.8,196,424,265.3z"/>
		<path class="st11" d="M424,265.3c10.1,46-18.1,75.7-57.1,74.3c-18.7-0.7-41-21.2-59.4-25.8c-24-6-44.8,1.8-67.7,2.9
			c-57,2.8-56.3-20.5-94.7-50.5c-27-21.1-70.6-18.8-85-55.7c-17.7-45.2,33-67,71.5-60.3c44.2,7.7,56.5-47.4,124.1-41.3
			C322,114.9,409.8,196,424,265.3z"/>
	</g>
</g>
<g id="Shadow_1_">
	<ellipse id="_x3C_Path_x3E__137_" class="st2" cx="250" cy="416.2" rx="193.9" ry="11.3"/>
</g>
<g id="Login">
	<g>
		<g>
			<path class="st10" d="M260.4,365.5H132.8c-4.2,0-7.8-3.4-8-7.6l-11.4-221.6c-0.2-4.2,3-7.6,7.2-7.6h127.6c4.2,0,7.8,3.4,8,7.6
				l11.4,221.6C267.9,362.1,264.6,365.5,260.4,365.5z"/>
			<path class="st12" d="M260.4,365.5H132.8c-4.2,0-7.8-3.4-8-7.6l-11.4-221.6c-0.2-4.2,3-7.6,7.2-7.6h127.6c4.2,0,7.8,3.4,8,7.6
				l11.4,221.6C267.9,362.1,264.6,365.5,260.4,365.5z"/>
		</g>
		<rect x="221.5" y="121.5" class="st10" width="14.1" height="1"/>
		<rect x="211.5" y="121.5" class="st10" width="5.2" height="1"/>
		<path class="st10" d="M265.9,351.4h-122c-4,0-7.5-3.3-7.7-7.3l-10.9-211.9c-0.2-4,2.9-7.3,6.9-7.3h122c4,0,7.5,3.3,7.7,7.3
			l10.9,211.9C273,348.2,269.9,351.4,265.9,351.4z"/>
		<path class="st5" d="M265.9,346.6h-122c-1.4,0-2.7-1.3-2.8-2.7L130.2,132c0-0.8,0.3-1.3,0.5-1.6c0.3-0.3,0.7-0.6,1.5-0.6h122
			c1.4,0,2.7,1.3,2.8,2.7L268,344.4c0,0.8-0.3,1.3-0.5,1.6C267.1,346.2,266.7,346.6,265.9,346.6z M132.2,130.1
			c-0.7,0-1.1,0.3-1.3,0.5c-0.2,0.2-0.5,0.7-0.5,1.4l10.9,211.9c0.1,1.3,1.3,2.4,2.6,2.4h122c0.7,0,1.1-0.3,1.3-0.5
			c0.2-0.2,0.5-0.7,0.5-1.4l-10.9-211.9c-0.1-1.3-1.3-2.4-2.6-2.4H132.2z"/>
		
			<ellipse transform="matrix(0.6979 -0.7162 0.7162 0.6979 -70.117 194.985)" class="st13" cx="196.1" cy="180.6" rx="36" ry="37.9"/>
		<path class="st5" d="M226,180.6c0.3,5.2-0.8,10-2.9,14.2c-4.6,9.3-14.1,15.6-25.5,15.6s-21.6-6.3-27.1-15.6
			c-2.5-4.2-4.1-9.1-4.3-14.2c-0.9-16.5,11.8-29.9,28.3-29.9S225.1,164.1,226,180.6z"/>
		<path class="st10" d="M223.1,194.8c-4.6,9.3-14.1,15.6-25.5,15.6s-21.6-6.3-27.1-15.6c7.3-5,16.1-8,25.9-8
			S215.3,189.8,223.1,194.8z"/>
		
			<ellipse transform="matrix(0.6979 -0.7162 0.7162 0.6979 -62.9542 191.5219)" class="st10" cx="195.6" cy="170.4" rx="13" ry="13.7"/>
		<g>
			<path class="st5" d="M248.4,269h-95.5c-1.7,0-3.2-1.4-3.2-3.1l-0.7-14c-0.1-1.7,1.2-3.1,2.9-3.1h95.5c1.7,0,3.2,1.4,3.2,3.1
				l0.7,14C251.4,267.6,250.1,269,248.4,269z"/>
			<path class="st14" d="M219.2,241.1h-39.9c-1.7,0-3.2-1.4-3.2-3.1l-0.2-3c-0.1-1.7,1.2-3.1,2.9-3.1h39.9c1.7,0,3.2,1.4,3.2,3.1
				l0.2,3C222.2,239.7,220.9,241.1,219.2,241.1z"/>
			<path class="st14" d="M234,336.3h-59.8c-2.9,0-5.4-2.4-5.5-5.3l-0.4-6.9c-0.1-2.9,2.1-5.3,5-5.3h59.8c2.9,0,5.4,2.4,5.5,5.3
				l0.4,6.9C239.1,334,236.9,336.3,234,336.3z"/>
			<path class="st5" d="M250.2,302.9h-95.5c-1.7,0-3.2-1.4-3.2-3.1l-0.7-14c-0.1-1.7,1.2-3.1,2.9-3.1h95.5c1.7,0,3.2,1.4,3.2,3.1
				l0.7,14C253.2,301.5,251.9,302.9,250.2,302.9z"/>
			<path class="st15" d="M165,258.9c0.1,1.9-1.4,3.4-3.2,3.4s-3.5-1.5-3.6-3.4c-0.1-1.9,1.4-3.4,3.2-3.4S164.9,257,165,258.9z"/>
			<path class="st15" d="M175.5,258.9c0.1,1.9-1.4,3.4-3.2,3.4c-1.9,0-3.5-1.5-3.6-3.4c-0.1-1.9,1.4-3.4,3.2-3.4
				S175.4,257,175.5,258.9z"/>
			<path class="st15" d="M186,258.9c0.1,1.9-1.4,3.4-3.2,3.4c-1.9,0-3.5-1.5-3.6-3.4c-0.1-1.9,1.4-3.4,3.2-3.4S185.9,257,186,258.9z
				"/>
			<path class="st15" d="M196.5,258.9c0.1,1.9-1.4,3.4-3.2,3.4s-3.5-1.5-3.6-3.4c-0.1-1.9,1.4-3.4,3.2-3.4
				C194.8,255.5,196.5,257,196.5,258.9z"/>
			<path class="st15" d="M166.8,292.7c0.1,1.9-1.4,3.4-3.2,3.4c-1.9,0-3.5-1.5-3.6-3.4c-0.1-1.9,1.4-3.4,3.2-3.4
				S166.7,290.9,166.8,292.7z"/>
			<path class="st15" d="M177.3,292.7c0.1,1.9-1.4,3.4-3.2,3.4c-1.9,0-3.5-1.5-3.6-3.4c-0.1-1.9,1.4-3.4,3.2-3.4
				S177.2,290.9,177.3,292.7z"/>
			<path class="st15" d="M187.8,292.7c0.1,1.9-1.4,3.4-3.2,3.4c-1.9,0-3.5-1.5-3.6-3.4c-0.1-1.9,1.4-3.4,3.2-3.4
				C186.1,289.3,187.7,290.9,187.8,292.7z"/>
			<path class="st15" d="M198.3,292.7c0.1,1.9-1.4,3.4-3.2,3.4c-1.9,0-3.5-1.5-3.6-3.4c-0.1-1.9,1.4-3.4,3.2-3.4
				C196.6,289.3,198.2,290.9,198.3,292.7z"/>
			<path class="st15" d="M208.8,292.7c0.1,1.9-1.4,3.4-3.2,3.4s-3.5-1.5-3.6-3.4c-0.1-1.9,1.4-3.4,3.2-3.4S208.7,290.9,208.8,292.7z
				"/>
			<path class="st15" d="M219.3,292.7c0.1,1.9-1.4,3.4-3.2,3.4c-1.9,0-3.5-1.5-3.6-3.4c-0.1-1.9,1.4-3.4,3.2-3.4
				S219.2,290.9,219.3,292.7z"/>
		</g>
	</g>
</g>
<g id="Character_1_">
	<g>
		<g>
			<path class="st16" d="M333,176.6c0.3,0.4,0.4,0.6,0.5,0.8l0.4,0.7c0.3,0.5,0.5,1,0.8,1.5c0.5,1,1,2,1.4,3c0.9,2,1.6,4,2.2,6.1
				c1.2,4.1,2,8.3,2.4,12.5l0.1,0.8c0,0.1,0,0.3,0,0.5l0,0.5c0,0.7,0,1.4-0.1,2.1c-0.2,1.3-0.5,2.6-1,3.7c-0.9,2.3-2.1,4.2-3.5,6
				c-2.7,3.5-5.8,6.3-9.3,8.8l-2.8-3.2c2.5-2.9,4.9-6,6.6-9.2c0.9-1.6,1.6-3.2,2-4.7c0.2-0.8,0.3-1.5,0.3-2.1c0-0.3,0-0.6,0-0.9
				l0-0.2c0-0.1,0-0.1,0-0.3l-0.1-0.7c-0.7-3.8-1.5-7.4-2.7-11c-0.6-1.8-1.3-3.5-2-5.2c-0.4-0.9-0.8-1.7-1.2-2.5l-0.6-1.2l-0.3-0.6
				l-0.3-0.4L333,176.6z"/>
			<path class="st17" d="M323.7,223.8l3.6,7.6l2.9-6.5c0,0-2.5-5.6-6-5.1L323.7,223.8z"/>
			<polygon class="st17" points="329.9,231.8 332.8,227.1 330.2,225 327.3,231.4 			"/>
			<path class="st10" d="M313.6,408.2c0.8,0,1.6-0.2,2.2-0.3c0.1,0,0.1-0.1,0.1-0.2c0-0.1,0-0.2-0.1-0.2c-0.3-0.2-2.8-1.8-3.8-1.4
				c-0.2,0.1-0.3,0.2-0.4,0.6c-0.1,0.4,0,0.8,0.3,1.1C312.4,408.1,313,408.2,313.6,408.2z M315.3,407.6c-1.5,0.3-2.6,0.2-3-0.1
				c-0.2-0.2-0.2-0.4-0.2-0.7c0-0.2,0.1-0.2,0.2-0.3C312.8,406.3,314.2,407,315.3,407.6z"/>
			<path class="st10" d="M315.8,407.9C315.8,407.9,315.9,407.9,315.8,407.9c0.2-0.1,0.2-0.1,0.2-0.2c0-0.1,0-2.5-0.9-3.3
				c-0.2-0.2-0.5-0.3-0.8-0.3c-0.5,0.1-0.6,0.4-0.7,0.6C313.4,405.6,314.9,407.4,315.8,407.9C315.7,407.9,315.8,407.9,315.8,407.9z
				 M314.4,404.5c0.2,0,0.3,0.1,0.4,0.2c0.5,0.5,0.7,1.8,0.8,2.6c-0.8-0.6-1.7-2-1.6-2.6C314,404.7,314,404.6,314.4,404.5
				C314.3,404.5,314.3,404.5,314.4,404.5z"/>
			<path class="st10" d="M304.2,404.1c0-0.1,0.1-0.1,0-0.2c0-0.1-0.1-0.1-0.2-0.1c-0.4,0-4-0.2-4.8,0.7c0,0,0,0,0,0.1
				c-0.1,0.2-0.2,0.4-0.1,0.6c0.1,0.4,0.4,0.6,0.7,0.7C301,406.3,303,405,304.2,404.1C304.2,404.2,304.2,404.1,304.2,404.1z
				 M299.5,404.8c0.4-0.5,2.4-0.6,3.9-0.6c-1.6,1.1-2.8,1.6-3.5,1.4c-0.2-0.1-0.4-0.2-0.5-0.5C299.4,405,299.4,404.9,299.5,404.8
				C299.5,404.8,299.5,404.8,299.5,404.8z"/>
			<path class="st10" d="M304.2,404.1C304.2,404.1,304.2,404.1,304.2,404.1c0.1-0.1,0.1-0.2,0-0.2c0-0.1-1.2-2.1-2.5-2.4
				c-0.4-0.1-0.8-0.1-1.1,0.1c-0.5,0.3-0.5,0.6-0.4,0.8c0.3,0.9,2.8,1.7,3.9,1.7C304.1,404.2,304.2,404.2,304.2,404.1z M300.6,402.1
				c0,0,0.1-0.1,0.2-0.1c0.3-0.2,0.5-0.2,0.8-0.1c0.9,0.2,1.7,1.3,2,1.9c-1.2-0.1-3-0.9-3.1-1.4
				C300.5,402.3,300.5,402.2,300.6,402.1z"/>
			<path class="st17" d="M315.2,147.3c-1,5-3.2,15.8,0.3,19.1c0,0-1.4,5-10.6,5c-10.2,0-4.9-5-4.9-5c5.5-1.3,5.4-5.4,4.4-9.3
				L315.2,147.3z"/>
			<path class="st15" d="M298.3,135.6c0.1,0,0.1,0,0.2,0c0.2-0.1,0.3-0.3,0.2-0.5c-1-2-2.8-2.2-2.9-2.2c-0.2,0-0.4,0.1-0.4,0.3
				c0,0.2,0.1,0.4,0.3,0.4l0,0c0.1,0,1.5,0.2,2.3,1.8C298,135.5,298.1,135.6,298.3,135.6z"/>
			<path class="st18" d="M295.2,140c0,0-1.5,2.7-2.9,4c0.8,0.9,2.3,0.7,2.3,0.7L295.2,140z"/>
			<path class="st15" d="M296,138.9c-0.1,0.7-0.5,1.2-0.9,1.1c-0.4-0.1-0.7-0.6-0.6-1.3c0.1-0.7,0.5-1.2,0.9-1.1
				C295.8,137.6,296.1,138.2,296,138.9z"/>
			<path class="st15" d="M295.5,137.6L294,137C294,137,294.7,138.3,295.5,137.6z"/>
			<polygon class="st17" points="313,402.2 304.9,404.1 299.9,385.4 308.1,383.5 			"/>
			<polygon class="st17" points="325.5,407.7 317.2,407.7 317.8,388.3 326.2,388.3 			"/>
			<path class="st15" d="M316.5,406.8h9.4c0.3,0,0.6,0.2,0.7,0.6l1.1,7.4c0.1,0.8-0.6,1.5-1.3,1.5c-3.3-0.1-4.9-0.2-9-0.2
				c-2.5,0-6.3,0.3-9.8,0.3c-3.4,0-3.7-3.5-2.2-3.8c6.6-1.4,7.6-3.4,9.8-5.2C315.5,406.9,316,406.8,316.5,406.8z"/>
			<path class="st15" d="M304.1,402.9l8.5-3.9c0.3-0.1,0.7,0,0.8,0.2l4.1,6.3c0.4,0.7,0.1,1.6-0.6,1.9c-3,1.3-4.5,1.8-8.3,3.5
				c-2.3,1.1-7,3.5-10.2,5c-3.1,1.4-4.8-1.6-3.6-2.5c5.4-4,6.9-6.9,8.1-9.5C303.3,403.5,303.7,403.1,304.1,402.9z"/>
			<g>
				<polygon class="st19" points="299.9,385.4 302.6,395.4 310.6,393.1 308.1,383.5 				"/>
				<polygon class="st19" points="326.2,388.3 317.8,388.3 317.5,398.3 325.9,398.3 				"/>
			</g>
			<path class="st15" d="M330,168.4c3.5,0.8,7.2,13.3,7.2,13.3l-9.8,10.5c0,0-8.2-11.8-6.5-16.1C322.5,171.5,325.8,167.5,330,168.4z
				"/>
			<path class="st20" d="M324.4,176.3c-1.8-1.6-2.9-1.1-3.8,0.1c-0.8,3.7,3.9,11.5,5.9,14.5C327.4,187.4,328.4,180,324.4,176.3z"/>
			<path class="st15" d="M285.9,168.6c0,0-4,1.4,4,50.6c13.5,0,27.5,0,34,0c-0.6-13.8-0.6-22.4,6-50.8c0,0-7.1-1.6-14.4-1.9
				c-5.7-0.3-10.4-0.5-15.4,0C293.4,167.1,285.9,168.6,285.9,168.6z"/>
			<path class="st20" d="M285.6,187.5c0.2,2.4,0.5,5.1,0.9,8.1c2.8-2.5,5.1-9.6,4.2-13.8C288.8,183.2,287,185.5,285.6,187.5z"/>
			<path class="st16" d="M289.2,180c-1.9,4.7-3.9,9.1-6.2,13.6c-2.3,4.4-4.7,8.8-8,13l-0.6,0.8l-0.3,0.4c-0.1,0.1-0.2,0.2-0.4,0.4
				c-0.6,0.7-1.3,1.3-2,1.8c-1.4,1-2.8,1.6-4.2,2.1c-2.8,0.9-5.4,1.3-8,1.4c-5.2,0.2-10.2-0.3-15.2-1.3l0.6-4.2c2.3,0,4.7,0,7-0.2
				c2.3-0.1,4.6-0.4,6.9-0.8c2.2-0.4,4.4-0.9,6.1-1.7c0.9-0.4,1.6-0.9,2.2-1.3c0.3-0.2,0.5-0.5,0.7-0.7c0,0,0.1-0.2,0.2-0.3l0.2-0.3
				l0.5-0.7c2.5-3.6,4.6-7.9,6.7-12.1c2-4.3,4-8.7,5.8-13L289.2,180z"/>
			<path class="st15" d="M285.9,168.6c-4.2,1-9.3,12.4-9.3,12.4l8.6,12.7c0,0,11.5-14.5,10.1-18.9C294,170.2,291,167.4,285.9,168.6z
				"/>
			<path class="st17" d="M247.3,208.5l-7.2-3.3l-0.7,7.2c0,0,6,1.8,9,0L247.3,208.5z"/>
			<polygon class="st17" points="235.8,204.5 235.1,209.9 239.4,212.3 240.1,205.2 			"/>
			<path class="st17" d="M318.8,139.4c-1.5,8.2-2,11.7-6.7,15.4c-7,5.6-16.7,1.9-17.7-6.5c-0.9-7.6,1.8-19.7,10.2-22
				C313,124,320.3,131.2,318.8,139.4z"/>
			<path class="st15" d="M300.9,141.1c-0.5,4.2-0.6,15,8.5,15.3c11.2,0.4,14.6-9.2,13.6-13c5.8-4.8,6.7-12.9,0.1-19.2
				c-6.6-6.3-21-2.8-25,3.3C293,135.1,300.9,141.1,300.9,141.1z"/>
			<path class="st10" d="M312.1,126.7c-0.5-4.4-0.1-7.4,4-7.4c4.1,0,9.7,1.5,11.8,5.7c2.1,4.2,2.2,10.8-3.5,10.1
				C318.6,134.4,312.8,131.9,312.1,126.7z"/>
			<path class="st15" d="M318.5,125.6c-1-5.2,3.7-20,15.1-21c5.3-0.4,7.7,5.2,5,6.2c5-0.1,8.2,6.5,3.5,7.5c3.7,2.4,2.8,7.2-2.5,9.6
				C335.7,129.7,319.8,132.9,318.5,125.6z"/>
			<path class="st15" d="M330.6,131.3c-3.7,0-7.5-0.5-9.9-2.1c-1.4-1-2.2-2.2-2.4-3.8c0-0.1,0.1-0.3,0.2-0.3c0.1,0,0.3,0.1,0.3,0.2
				c0.1,1.4,0.8,2.6,2.1,3.4c4.5,3,15,2,18.3,1c2.8-0.9,4.7-2.7,5.1-4.8c0.3-1.5-0.3-3-1.7-4c-0.1-0.1-0.1-0.2,0-0.4
				c0.1-0.1,0.2-0.1,0.4,0c1.5,1.2,2.2,2.8,1.9,4.5c-0.4,2.3-2.4,4.2-5.4,5.2C337.8,130.7,334.3,131.3,330.6,131.3z"/>
			<path class="st17" d="M298.3,140c-1,1.4-1.3,3.1-1.1,4.5c0.3,2.1,2.4,2.2,3.9,0.9c1.3-1.2,2.8-3.8,1.7-5.5
				C301.7,138.2,299.5,138.4,298.3,140z"/>
			<path class="st10" d="M298.9,219.2c0,0,4.9,57.5,9.9,89.9c4.1,26.2,7.3,87.3,7.3,87.3h11.4c0,0,4.1-59.3,2-85.2
				c-5.2-65.5,6.4-70.8-5.6-92H298.9z"/>
			<path class="st20" d="M313.3,240.9c-4.6,4.7-8.1,10.3-10.8,16.3c1.3,12.9,2.9,27.3,4.6,39.8C312.3,283.9,316.7,263.7,313.3,240.9
				z"/>
			<path class="st10" d="M290.9,218.8c0,0-10.5,62.8-12.2,91.1c4.1,26.2,21.1,81.5,21.1,81.5l10.4-3.8c0,0-5.7-60.3-12-76.8
				c14.1-47.4,24.4-59.3,21.4-91.6C312.4,219.2,290.9,218.8,290.9,218.8z"/>
			<polygon class="st15" points="298.4,394.1 312.4,390.3 311.6,384.7 296.6,388.8 			"/>
			<polygon class="st15" points="314.5,396.6 329.1,396.6 329.8,391.5 314.4,391 			"/>
			<g>
				<path class="st10" d="M324.4,217.2l1.5,3c0.1,0.2-0.2,0.5-0.6,0.5h-35.7c-0.3,0-0.6-0.2-0.6-0.3l-0.3-3c0-0.2,0.2-0.4,0.6-0.4
					h34.4C324.1,216.9,324.4,217,324.4,217.2z"/>
				<path class="st21" d="M324.4,217.2l1.5,3c0.1,0.2-0.2,0.5-0.6,0.5h-35.7c-0.3,0-0.6-0.2-0.6-0.3l-0.3-3c0-0.2,0.2-0.4,0.6-0.4
					h34.4C324.1,216.9,324.4,217,324.4,217.2z"/>
			</g>
			<path class="st10" d="M319.8,221h0.9c0.2,0,0.3-0.1,0.3-0.2l-0.4-4c0-0.1-0.2-0.2-0.4-0.2h-0.9c-0.2,0-0.3,0.1-0.3,0.2l0.4,4
				C319.5,220.9,319.6,221,319.8,221z"/>
			<g>
				<path class="st10" d="M307.4,191.9c-0.2,0-0.4-0.2-0.5-0.4c-3.3-12.1-10-22-13.3-23.5c-0.4-0.2-0.7-0.2-0.8-0.1
					c-0.3,0.1-0.5,0-0.7-0.3c-0.1-0.3,0-0.5,0.3-0.7c0.5-0.2,1-0.2,1.7,0.1c3.5,1.6,10.3,11.4,13.7,23.8c2.5,0,6.2-0.3,7.1-0.4
					c1.1-1.4,9.5-11.8,6.4-23.3c-0.1-0.3,0.1-0.5,0.4-0.6c0.3-0.1,0.5,0.1,0.6,0.4c3.5,12.8-6.6,24.3-6.7,24.4
					c-0.1,0.1-0.2,0.2-0.3,0.2C315.2,191.4,310.2,191.9,307.4,191.9z"/>
				<g>
					<g>
						<path class="st10" d="M324,198.9c-5.5-10.2-7.7-10.9-8.7-14.2c0,0,0.9-2.5,3.1-5c-0.7-0.2-2.1-0.5-3-0.6
							c0.1-0.4,0.2-0.9,0.3-1.3c-0.7-0.2-2.3,0-3,0.1l0-1c0,0-2.8-0.6-3.9-0.2c0.1,0.5,0.2,0.9,0.3,1.4c-1,0.2-2.5,0.5-3.3,0.7
							c2.1,2.4,2.9,4.9,3.1,5.6c-2.9,5-14.4,37.5,4.2,40C331.8,226.8,329.4,209.2,324,198.9z"/>
						<path class="st22" d="M324,198.9c-5.5-10.2-7.7-10.9-8.7-14.2c0,0,0.9-2.5,3.1-5c-0.7-0.2-2.1-0.5-3-0.6
							c0.1-0.4,0.2-0.9,0.3-1.3c-0.7-0.2-2.3,0-3,0.1l0-1c0,0-2.8-0.6-3.9-0.2c0.1,0.5,0.2,0.9,0.3,1.4c-1,0.2-2.5,0.5-3.3,0.7
							c2.1,2.4,2.9,4.9,3.1,5.6c-2.9,5-14.4,37.5,4.2,40C331.8,226.8,329.4,209.2,324,198.9z"/>
					</g>
					<path class="st10" d="M308.3,183.4c-0.1,0.2-0.1,1.2-0.1,1.6c0,0.4,1,0.6,2.1,0.7s5.8,0.3,5.6-0.2c-0.1-0.5,0.2-1.2,0.3-1.7
						c0-0.4-1.9-0.5-3.4-0.4S308.6,182.9,308.3,183.4z"/>
				</g>
			</g>
			<path class="st10" d="M297.4,221h0.9c0.2,0,0.3-0.1,0.3-0.2l-0.4-4c0-0.1-0.2-0.2-0.4-0.2H297c-0.2,0-0.3,0.1-0.3,0.2l0.4,4
				C297.1,220.9,297.3,221,297.4,221z"/>
		</g>
	</g>
</g>
</svg>
