<?xml version="1.0" encoding="utf-8"?>
<!-- Generator: Adobe Illustrator 24.2.1, SVG Export Plug-In . SVG Version: 6.00 Build 0)  -->
<svg version="1.1" id="Layer_1" xmlns="http://www.w3.org/2000/svg" xmlns:xlink="http://www.w3.org/1999/xlink" x="0px" y="0px"
	 viewBox="0 0 1792.3 1106" style="enable-background:new 0 0 1792.3 1106;" xml:space="preserve">
<style type="text/css">
	.st0{fill:#184655;}
	.st1{fill:#9BC1F9;}
	.st2{fill:#F8A492;}
	.st3{fill:#13375B;}
	.st4{fill:#355389;}
	.st5{fill:#3C8F7C;}
	.st6{fill:#F47458;}
	.st7{fill:#50BFA5;}
	.st8{fill:#F7A491;}
	.st9{fill:#B75742;}
	.st10{fill:#86B1F2;}
	.st11{fill:#F7CC7F;}
	.st12{fill:#466EB6;}
	.st13{fill:#FAE0B2;}
	.st14{fill:#F48C7F;}
	.st15{fill:#96D9C9;}
</style>
<g>
	<path class="st0" d="M1733.2,1051H59.8c-2.8,0-5-2.2-5-5s2.3-5,5-5h1673.5c2.8,0,5,2.2,5,5S1736,1051,1733.2,1051z"/>
</g>
<rect x="397.4" y="144.2" class="st1" width="389.9" height="896.9"/>
<g>
	<path class="st2" d="M344.4,997.2c0,0-7.4,21.3-8.2,23.5c0,0.1-3.1,13.2-3.1,16.6c0,12.8,57-10.9,44.2-16.6c-1.2-0.5-4.8-4.6-5.2-9
		c-0.6-6.7,4.8-15.1,4.8-15.1L344.4,997.2z"/>
	<path class="st3" d="M329.8,1041.6l6.3-20.9c0,0,13.9,5.8,20.8,4.9c6.9-1,20.2-4.9,20.2-4.9c27.4,9.1,49.8,13.6,45.7,20.9l0,0
		H329.8z"/>
	<path class="st2" d="M220.7,974.7c0,0-9.2,9.1-9.5,12.5c-0.2,3.4-0.8,39.3,3,42.6c3.8,3.4,14.9,5.7,11.3,9.5
		c-2.7,2.9-23.4,2.2-37.1,1.5c-4-0.2-9-32.6-10.6-37.4c-2.3-6.9-10.6-22-8.5-26.8c1-2.3,8.6-7.7,15.5-12.2
		c7.2-4.7,14.2-15.3,14.2-15.3L220.7,974.7z"/>
	<g>
		<path class="st3" d="M432.7,549.5l11,51.5c0,0,9.3,176.3,4.7,208.7c-4.5,31.8-73.4,198.2-73.4,198.2l-40.6-5.9
			c0,0,51.7-187.5,52.5-201.6c0.6-9.2-17.4-77.4-17.4-77.4l-24.6-153l70.4-17.6L432.7,549.5z"/>
		<path class="st4" d="M315.2,549.9c0,0-24.1,221.4-34,239.6c-8.1,14.9-96.4,162.3-96.4,162.3s19,26.8,33.7,30.1
			c0,0,115.5-145.5,129.3-169.8c11.6-20.5,70.1-212.6,70.1-212.6l-2.5-47.2L315.2,549.9z"/>
	</g>
	<path class="st2" d="M525.9,619.5c-1.6-2.3-2.6-4-2.2-4.3c1.3-0.9,5.4-1.8,6.6-1.1c1.2,0.7,2.6,3.1,3.8,3.9
		c1.2,0.7,3.3,0.6,4.3-0.8c1-1.4-3.3-7-3.3-7s-3.5-4.5-7.2-6c-12.8-5.1-13.1-2.8-14.8-3.5c-1.9-0.8-17.2-24.3-17.2-24.3
		s-45.6-69-47.9-72.8L434,418.7l-43.7-4.6c0,0,17.6,91.9,19.3,96.5c1.8,4.6,74.2,90.5,80.3,98.3c0,0,3.9,12,6.6,19.5
		c2.7,7.5,8.6,13.3,9.6,15.3c0.1,0.2,1.7-0.5,3.2-1.1C510.3,632.2,516.5,624,525.9,619.5z"/>
	<path class="st5" d="M446.3,448.4l-50.2,5.2c0,0-2.3-41.7-2.3-61.6c0-24.1,2.7-54.9,5.6-54.2c8.1,1.9,18.3,6,24.7,15
		C446.5,384.1,446.3,448.4,446.3,448.4z"/>
	<path class="st2" d="M256.9,645.6c-7.7-12.6-9.4-10.8-10.3-12.4c-1.1-1.9,0.1-31.9,0.1-31.9s3.1-88.2,3.4-93l39.3-81.5l-33.9-32
		c0,0-40.4,89.8-41.7,94.9c-1.3,5.1,8,125,8.5,135.6c0,0-3.9,12.8-6.1,20.9c-2.2,8.1-0.8,16.9-1.1,19.3c0,0.4-0.5,8.4,1.4,18.4
		c1.7,8.7,3.9-0.3,3.9-0.3s-0.3-16.6,0.9-16.4c1,0.2,0.6,9.2,2.4,18.8c0.5,2.5,0.9,4.9,1.4,7.1c1.2,5.9,5,6.9,4.7,0.5
		c-0.1-2.2-0.3-5.9-0.9-8.6c-0.6-2.8-0.2-5.6-0.3-8.1c-0.3-4.9-0.5-8.4-0.3-8.3c0.3,0.1,0.9-0.9,1.4,1.7c0.7,3.1,0.7,10.1,2,14.6
		c0.8,2.6,2,8,2,8s3.4,7.9,3.9,7.9c2.8-0.2,1.9-6.3,0.5-9.7c0.1-2.6-1.4-8.3-1.4-8.3s-0.5-12.2,1.2-12.3c0.7,0,1.9,7.4,4.2,14.6
		c2.1,6.6,5.3,13,6.6,12.8c2.3-0.4,0.7-8,0.7-8s-1.4-5.3-1.7-7.1c-0.4-2.1-1.1-8.5-1.1-8.5s-1.4-22.3,0.2-22.2
		c1.6,0.1,5.7,1.9,6.2,3.3c0.6,1.4,0.3,4.4,0.9,5.7c0.6,1.4,2.4,2.6,4.1,2.1c1.7-0.6,1.4-8.1,1.4-8.1S259.1,649.2,256.9,645.6z"/>
	<path class="st3" d="M185.3,964.1c0,0,19.4,59.7,27.7,62.7c2.2,0.8,14.7,3.9,16.7,8.7c0,0.1,0.1,0.3,0.1,0.4c0.6,3-1.9,5.8-5,5.8
		h-39.6c0,0-5.6-26.8-7.8-38.6c0,0-11.8-28.8-10.4-31.4C168.3,969.1,185.3,964.1,185.3,964.1z"/>
	<path class="st6" d="M523.7,615.2c-6,1.2-11.1-0.4-15.8-4.5c0.1,0.2,0.1,0.3,0.2,0.5c1.1,2.2,1,4.8-0.5,6.8
		c-2.9,4-6.3,10.8-3.4,18.4c0,0,4.1-11.8,8.1-14c3.1-1.7,6.2-4.3,7.5-5.5C521.1,616.6,522.5,616.1,523.7,615.2z"/>
	<path class="st7" d="M332.2,332.1c0,0-26.6,3.7-33.6,8.8c-7.9,5.8-32.3,32.8-32.3,32.8s48.3,140.4,48.4,166.3
		c0,20.1-7.1,69.5-7.1,69.5s98.7,6.2,136.1-8.5c0,0-11.8-58.7-11.8-74.1c0-15.4-6.6-169.5-11.3-177.5c-4.7-8.1-14.2-12.7-32.3-16.6
		C370.2,328.8,332.2,332.1,332.2,332.1z"/>
	<path class="st8" d="M339.5,290.5l-6.6,43.1c0,0,24,51.3,38.4,46.9c12-3.7,4.6-49.2,4.6-49.2s-6.6-24.4-4.6-36.6
		C373.3,282.5,339.5,290.5,339.5,290.5z"/>
	<path class="st6" d="M371.3,294.7c2-12.2-31.9-4.2-31.9-4.2l-0.5,3.6c1,2.4,2.2,4.4,3.7,6c7.6,8.1,19.4,12.9,29.6,13.3
		C371.1,306.8,370.5,299.7,371.3,294.7z"/>
	<g>
		<path class="st8" d="M333.9,229.5c-1-0.3-7.7,49.1,5.1,62.7c12.7,13.6,37.5,18.1,46.4,7.3c9.8-11.9,9.3-65-10.4-79
			C355.2,206.6,333.9,229.5,333.9,229.5z"/>
		<path class="st3" d="M367.4,194.1c-15.3,3.1-25.2,12.4-28.8,16.3c-6.9,0.8-16.4,4.6-26.1,20.7c-12,19.7-3.1,41.6,10.8,52.3
			c14,10.7,13.8,23.2,13.8,23.2l2.2-6.5c1.6-4.9,2.3-10,1.7-15.1c-0.3-3.1-1-6.4-2.3-9.1c-3.4-7.2,7.2-11.9,10.2-17.9
			c2.3-4.6,2.4-15.1,6-22.7l4.3-5.8c0,0,9.9-7.7,19.6-5.5C388.4,226.3,387.1,190.1,367.4,194.1z"/>
		<path class="st8" d="M348.2,266.9c0.1,6-2.7,11-6.2,11c-3.5,0.1-6.4-4.8-6.5-10.8c-0.1-6,2.7-11,6.2-11
			C345.2,256,348.1,260.8,348.2,266.9z"/>
	</g>
	<g>
		<path class="st6" d="M610.6,757.1l-131.7,36.1c-3.8,1.1-7.9-2-8.9-6.7l-14-89.7c-2.4-11.4-2.2-23.9,7.2-26.4l115-31.5
			c3.7-1,7.6,1.7,8.8,6.1L615,747.4C616.2,751.8,614.3,756.1,610.6,757.1z"/>
		<path class="st9" d="M643,748.3l-138,37.8c-3.8,1-7.9-2-8.9-6.6l-22.7-103.9c-0.9-4.2,1.1-8.3,4.6-9.2l119.8-32.8
			c3.5-1,7.2,1.5,8.6,5.5l36.9,108.5C643.3,747.9,643.2,748.2,643,748.3z"/>
		<g>
			<path class="st9" d="M565.3,654.2l-8.2,2.3l-7.4-27.1c-1.6-6-7.1-9.8-12.1-8.4l-17.7,4.9c-5,1.4-7.8,7.4-6.1,13.4l7.4,27.1
				l-8.2,2.3l-7.4-27.1c-3.1-11.4,2.1-22.8,11.7-25.4l17.7-4.9c9.6-2.6,19.9,4.5,23,15.9L565.3,654.2z"/>
		</g>
		<path class="st2" d="M514.8,643.4c0,0,23.3-17.7,22.7-21.2c-0.6-3.5-25-11.4-24.7-8.1c0.3,3.4,12.1,9.3,12.1,9.3
			s-16.8-9.6-16.8-4.9c0,4.7,9.5,8.1,9.5,8.1s-9.8-5-10.4-2.6c-0.6,2.4,6.1,6.3,6.1,6.3s-6-3.8-6.4-1.1
			C506.4,631.9,514.8,643.4,514.8,643.4z"/>
	</g>
	<path class="st2" d="M535,610.1c0,0-3.3-4.3-6.9-5.9l-2.4,9.3c1.7-0.5,3.7,0,4.5,0.4c1.2,0.7,2.6,3.1,3.8,3.9
		c1.2,0.7,3.3,0.6,4.3-0.8C539.3,615.7,535,610.1,535,610.1z"/>
	<path class="st7" d="M303.5,338.5c0,0-20.8,5.1-36.7,20.3c-15.9,15.3-44.6,94.3-44.6,94.3l45.2,28.1l23.8-43.6L303.5,338.5z"/>
</g>
<rect x="945.6" y="143" class="st10" width="387.2" height="898.5"/>
<path class="st11" d="M1274.4,583.6c0,14.4-11.7,26.1-26.1,26.1s-26.1-11.7-26.1-26.1c0-14.4,11.7-26.1,26.1-26.1
	S1274.4,569.2,1274.4,583.6z"/>
<path class="st1" d="M1281,200.1h-270c0,15.2-12.9,27.5-28.7,27.5v236.2c15.9,0,28.7,12.3,28.7,27.5h270c0-15.2,12.9-27.5,28.7-27.5
	V227.6C1293.9,227.6,1281,215.3,1281,200.1z M1298.2,454.4c-13,3.7-23.2,13.5-27.1,25.9h-250.4c-3.9-12.4-14.1-22.2-27.1-25.9V237
	c13-3.7,23.2-13.5,27.1-25.9h250.4c3.9,12.4,14.1,22.2,27.1,25.9V454.4z"/>
<path class="st1" d="M1097.2,675.7h-72.8c0,15.2-12.9,27.5-28.7,27.5v274.7c15.9,0,28.7,12.3,28.7,27.5h72.8
	c0-15.2,12.9-27.5,28.7-27.5V703.1C1110,703.1,1097.2,690.8,1097.2,675.7z M1115.2,969c-13.2,3.5-23.5,13.5-27.3,26.1h-54.3
	c-3.7-12.6-14.1-22.5-27.3-26.1v-257c13.2-3.5,23.5-13.5,27.3-26.1h54.3c3.7,12.6,14.1,22.5,27.3,26.1V969z"/>
<path class="st1" d="M1254.2,675.7h-72.8c0,15.2-12.9,27.5-28.7,27.5v274.7c15.9,0,28.7,12.3,28.7,27.5h72.8
	c0-15.2,12.9-27.5,28.7-27.5V703.1C1267.1,703.1,1254.2,690.8,1254.2,675.7z M1272.2,969c-13.2,3.5-23.5,13.5-27.3,26.1h-54.3
	c-3.7-12.6-14.1-22.5-27.3-26.1v-257c13.2-3.5,23.5-13.5,27.3-26.1h54.3c3.7,12.6,14.1,22.5,27.3,26.1V969z"/>
<g>
	<rect x="524.8" y="91.2" class="st12" width="25.5" height="950.2"/>
	<g>
		<path class="st10" d="M550.3,91.2c0,2.4-0.2,949.8-0.2,949.8h236V143.6L550.3,91.2z"/>
		<path class="st1" d="M740.2,198.9L609.3,171c-0.1,13.4-11,23.7-23.8,23.7c-1.6,0-3.3-0.2-5-0.5l-1.2,262.5
			c12,1.5,20.9,11.7,20.9,23.7l131,16.1c0.1-13.3,10.9-23.7,23.8-23.7c1,0,2,0.1,3,0.2l1.2-250.8
			C748.1,219.9,740.2,210.1,740.2,198.9z M748.8,464.3c-11.8,2.3-21.4,10.9-25.1,22.1l-115.3-14.2c-2.6-10.2-10-18.7-19.9-22.5
			l1.1-246.1c12.5-1.6,22.8-10.2,26.9-21.7L732,206.5c2.3,9.7,8.9,18,18,22.3L748.8,464.3z"/>
		<path class="st1" d="M736.9,655.6l-34.7-3c0,13.3-10.8,23.8-23.8,23.8c-0.7,0-1.4,0-2.1-0.1v301.9c13.1,0,23.8,10.7,23.8,23.8
			l34.2,0.1c0-13.1,10.7-23.8,23.8-23.8c0,0,0,0,0,0l0.5-298.9C746.4,678.3,736.9,668,736.9,655.6z M749,970.4
			c-10.8,3.1-19.4,11.7-22.5,22.5l-18.5,0c-3.1-10.8-11.7-19.4-22.5-22.5V684.8c11.5-2.5,20.8-11.2,24.3-22.3l19.1,1.6
			c2.8,10.3,10.6,18.8,20.6,22.5L749,970.4z"/>
		<path class="st1" d="M639.3,647.2l-30.3-2.6c0.1,13.3-10.7,24-23.8,24c-0.7,0-1.4,0-2.1-0.1l2.4,309.8c13.1,0,23.7,10.6,23.8,23.6
			l28,0c0-13.1,10.7-23.8,23.8-23.8h0V670.9C648.8,669.8,639.3,659.5,639.3,647.2z M651.9,970.2c-10.8,3.1-19.4,11.7-22.5,22.5
			l-12.3,0c-3.2-10.7-11.7-19.2-22.5-22.3l-2.2-293.4c6.1-1.3,11.7-4.4,16.2-9c3.8-3.9,6.6-8.5,8.1-13.5l14.5,1.3
			c2.7,10.5,10.5,18.9,20.7,22.5V970.2z"/>
	</g>
</g>
<g>
	<path class="st11" d="M613.8,566.6c0,10.3-4.3,18.6-9.6,18.6c-5.3,0-9.6-8.3-9.6-18.6c0-10.3,4.3-18.6,9.6-18.6
		C609.5,548,613.8,556.3,613.8,566.6z"/>
	<path class="st6" d="M622.8,560v14.7h-20.1c-0.6-2.4-0.9-5.1-0.9-8c0-2.4,0.2-4.6,0.6-6.7H622.8z"/>
	<path class="st13" d="M636.7,566.6c0,15.5-6.5,28.1-14.5,28.1c-8,0-14.5-12.6-14.5-28.1c0-15.5,6.5-28.1,14.5-28.1
		C630.2,538.5,636.7,551.1,636.7,566.6z"/>
	<ellipse class="st13" cx="626.1" cy="566.6" rx="14.5" ry="28.1"/>
</g>
<path class="st14" d="M484.1,174.1c0,4-3.7,7.3-8.2,7.3c-4.6,0-8.2-3.3-8.2-7.3c0-4,3.7-7.3,8.2-7.3
	C480.4,166.7,484.1,170,484.1,174.1z"/>
<path class="st14" d="M453.9,291.7c0,4-3.7,7.3-8.2,7.3c-4.5,0-8.2-3.3-8.2-7.3c0-4,3.7-7.3,8.2-7.3
	C450.2,284.4,453.9,287.6,453.9,291.7z"/>
<path class="st5" d="M220.4,397.8c0,4-3.7,7.3-8.2,7.3c-4.5,0-8.2-3.3-8.2-7.3c0-4,3.7-7.3,8.2-7.3
	C216.7,390.5,220.4,393.7,220.4,397.8z"/>
<path class="st11" d="M520.5,325.2c-1.3,3.8-4.5,6.9-7.2,6.9c-2.7,0-3.7-2.8-2.3-6.3c1.4-3.5,4.6-6.5,7.2-6.9
	C520.7,318.6,521.7,321.4,520.5,325.2z"/>
<path class="st11" d="M515.7,168.2c-2.5-2.4-3.9-7.4-3.1-11.1c0.8-3.7,3.3-4.7,5.6-2.1c2.2,2.5,3.6,7.5,3.1,11.1
	S518.2,170.7,515.7,168.2z"/>
<path class="st13" d="M495.4,207.4c3.2,2.4,5.1,6.5,4.2,9c-0.9,2.6-3.9,2.6-6.7,0.2c-2.8-2.4-4.7-6.5-4.2-9
	C489.3,205.1,492.3,205,495.4,207.4z"/>
<path class="st14" d="M241.2,244.3c-4.7-1.2-8.6-4.8-8.9-8.1c-0.2-3.2,3.1-4.7,7.4-3.4c4.3,1.4,8.3,5,8.9,8.1
	C249.2,244,245.9,245.5,241.2,244.3z"/>
<path class="st14" d="M244.3,333.6c-3.4,3.5-8.5,5.1-11.4,3.7c-2.9-1.4-2.6-5,0.7-8.1c3.3-3,8.4-4.7,11.4-3.7
	C248,326.5,247.6,330.1,244.3,333.6z"/>
<path class="st15" d="M331.8,118.7l-18.1-6.8l-15.8,11c-1.8,1.3-4.3-0.1-4.2-2.3l0.9-19.3l-15.4-11.7c-1.8-1.3-1.2-4.1,0.9-4.7
	l18.6-5.1l6.3-18.3c0.7-2.1,3.5-2.4,4.7-0.6l10.6,16.1l19.3,0.4c2.2,0,3.4,2.6,2,4.3l-12,15.1l5.6,18.5
	C335.9,117.6,333.9,119.5,331.8,118.7z"/>
<path class="st6" d="M417.3,168.2l-11.7-10.3l-15.1,3.8c-1.7,0.4-3.2-1.3-2.5-2.9l6.1-14.3l-8.3-13.2c-0.9-1.5,0.2-3.4,2-3.3
	l15.5,1.4l10-12c1.1-1.4,3.3-0.8,3.7,0.9l3.5,15.2l14.5,5.8c1.6,0.7,1.8,2.9,0.3,3.8l-13.4,8l-1,15.6
	C420.7,168.5,418.6,169.4,417.3,168.2z"/>
<path class="st15" d="M176.7,382.2l-9-3.4l-7.9,5.5c-0.9,0.6-2.1,0-2.1-1.1l0.4-9.6l-7.7-5.8c-0.9-0.7-0.6-2,0.4-2.3l9.3-2.6
	l3.2-9.1c0.4-1,1.8-1.2,2.4-0.3l5.3,8l9.6,0.2c1.1,0,1.7,1.3,1,2.1l-6,7.5l2.8,9.2C178.7,381.6,177.7,382.5,176.7,382.2z"/>
<polygon class="st13" points="447.8,176.7 438,193.8 426,190.4 416.3,206 398.9,203.2 400,196.6 412.9,198.7 423,182.6 434.8,185.9 
	442,173.4 "/>
<polygon class="st11" points="236.9,283.3 224.4,271.6 208.1,278.2 195,264 179.9,276.4 164.4,261 149,270.7 131.7,258.4 
	136.3,251.8 149.3,261 165.5,250.8 180.4,265.6 195.8,253 210.3,268.6 226.1,262.2 237.7,273.1 247.3,266.7 251.7,273.4 "/>
<polygon class="st13" points="456.8,103.5 448.9,95.2 452.2,92.1 456.6,96.6 462.5,89.7 466,92.7 "/>
<polygon class="st6" points="290.6,194.8 223.2,214.2 243.3,183.2 177.6,154.1 203.6,113.2 259.4,159.4 277.4,129 "/>
<polygon class="st11" points="348.8,195 320.7,198.7 313.3,159.8 323.9,171 328.9,157.7 336.8,168.3 345.9,155.5 "/>
<g>
	<g>
		<path class="st8" d="M1526,679.9c0,0,0.9-4.5,1.1-6c0.2-1.8,0.5-7.1,0.5-7.1s0-18.7-1.4-18.6c-1.4,0.1-3.2,3.3-3.6,4.5
			c-0.4,1.2-1,2.5-1.4,3.6c-0.4,1.2-1.6,1.8-3.1,1.4c-1.5-0.4-0.9-5.3-0.3-7c1.7-5.2,9.1-18.1,9.9-19.6c0.9-1.7-5.1-34.1-6.3-45.3
			c0,0,0,0,0,0c-2.4-18.4-5.9-37.1-6.1-39.1l-32.7-72.3l21.8-22.3c0,0,37.4,79.8,38.9,84c0.7,2,3,45,3,45c-0.2,21.3-0.4,40-0.3,43.6
			c0,0,3.1,10.7,5.4,17.4c2.4,6.7,1.8,13.8,2.2,15.8c0.1,0.3,1.7,7.1,0.6,15.5c-1,7.3-3.4-0.1-3.4-0.1s-0.6-13.9-1.7-13.7
			c-0.8,0.2,0,7.8-1.1,15.9c-0.3,2.1-0.5,4.1-0.8,6c-0.7,4.9-3.9,5.9-4.1,0.6c0-1.9,0-5,0.3-7.2c0.3-2.4-0.1-4.7-0.1-6.8
			c0-4.1,0-7.1-0.2-7c-0.2,0.1-0.8-0.7-1.1,1.5c-0.4,2.6,0,8.5-0.9,12.3c-0.5,2.2-1.3,6.8-1.3,6.8s-2.1,7.3-2.6,7.3
			c-2.4-0.1-2.4-5.8-1.3-8.7c-0.3-2.2,0.7-7,0.7-7s-0.2-10.3-1.7-10.3c-1.2,0-5.4,24.6-7.8,24.3C1525.1,687.4,1526,679.9,1526,679.9
			z"/>
	</g>
	<path class="st12" d="M1495.9,516.3c0,0,13.6-2.3,20.8-5c9.6-3.6,15.9-6.7,15.9-6.7s-10.5-45.1-23.7-72.5
		c-5.4-11.3-10.9-16.8-18.6-18.1c0,0-16.2,10.6-15.5,36.2C1474.9,456.1,1495.9,516.3,1495.9,516.3z"/>
	<g>
		<path class="st8" d="M1454.1,668l-17.6,162c0,0,8.6,34.2,7.6,44c-1,9.7-19.1,137.4-19.1,137.4l0.8,7.2l0,21.1h-67.2
			c0,0,14.3-6.6,34.2-19.6c1.5-1,4.9-4,5.7-10.1c5.3-39.3-5.2-170.6-5.2-170.6l-8.3-170.8L1454.1,668z"/>
		<path class="st8" d="M1508.1,702.1c3.8,1,9.6,140.2,12.8,146.4c19.9,39.1,24.7,158.1,24.7,158.1l5.9,17.3l6,20.6
			c0,0-19.9,5.3-30.3-0.7l1.2-20.5l1.1-18.7l-50.2-148.2l-27.5-151.2L1508.1,702.1z"/>
		<path class="st10" d="M1408.2,432.3c8.1-11.4,41.5-44.4,45.3-44.4c10.8,0.2,46.4,0.2,53.3,3.8l-0.3,62.9
			c-1.1,5.3-25.7,87.5-24.3,105.5l-0.2,0.2c-20.6,20.4-53,18.8-71.8-3.6l0,0c0,0,0.1-24.9-2.8-47.7
			C1402.9,473.5,1388.1,460.7,1408.2,432.3z"/>
		<path class="st0" d="M1378.7,773.4l-2.4-96.1c-0.4-27.2,5-54.1,15.7-78.8l18.2-41.7c7.3,2.4,14.3,4.5,22,5.3c16.8,1.9,33.3,0,50-2
			c0.1,0.7,0.1,1.2,0.2,1.7c3,14.1,19.9,45.7,27,88.8c8.1,48.9,10.2,116.8,9.2,122.5C1471.9,784.5,1424,784.9,1378.7,773.4z"/>
		<path class="st8" d="M1464.4,352.5c0,0-0.9,23.2,1.1,32c2,8.8,4.7,9.5-12.7,12.1c-6.8,1.1-13.4,2.6-13.4,2.6s1.8-12.9,2.1-18.4
			c0.4-9-2-36.7-2-36.7L1464.4,352.5z"/>
		<path class="st6" d="M1451.1,364.1c-3.6,2-6.9,3.2-10,3.7c-0.6-11-1.7-23.5-1.7-23.5l23.8,7.9
			C1460.4,356.9,1456.5,361.1,1451.1,364.1z"/>
		<path class="st8" d="M1458.8,287.6c0,0,9.9,3.5,15.4,14.4c5.5,10.9,7.5,41.7-14.1,53.7c-10.7,6-23,7.1-28.8,1.8
			c-5.9-5.3-5.2-17.2-4.6-27.1C1427.9,310.9,1432.2,281.3,1458.8,287.6z"/>
		<path class="st8" d="M1474.8,326.2c-1.2,5.1,0.4,10.1,3.7,11.1c3.2,1,6.9-2.4,8.1-7.5c1.2-5.1-0.4-10.1-3.7-11.1
			C1479.6,317.7,1476,321,1474.8,326.2z"/>
		<path class="st3" d="M1528.4,1023.2c9.2,4.2,19,1.7,23,0.3l1.3,3.7l5.1,17.4c0,0-20.1,5.1-30.6-0.8L1528.4,1023.2z"/>
		<path class="st6" d="M1519.7,784.8C1519.7,784.8,1519.6,784.8,1519.7,784.8C1519.6,784.8,1519.7,784.8,1519.7,784.8z"/>
		<path class="st3" d="M1426.4,1044.9h-69.8c-2.6-0.2-3.2-2.4-2.3-3.8c1.8-2.8,10-4.8,19.1-9.2c16.1,1.7,49.8-9.7,52.3-13.5
			C1427.2,1026.1,1427.9,1044.5,1426.4,1044.9z"/>
		<path class="st9" d="M1454.8,645.4v30.2c0,15.7-12.7,28.5-28.5,28.5H1397v-70.5h46c3.1,0,6,1.2,8.1,3.2
			C1453.4,639,1454.8,642,1454.8,645.4z"/>
		<g>
			<path class="st9" d="M1454.6,646.5l-8.7-0.2l4.9-236.5c-9.1,1.7-16.7,8.4-19.3,17.6L1371,641l-8.4-2.4l60.5-213.5
				c4.1-14.3,17.3-24.3,32.1-24.3h4.4L1454.6,646.5z"/>
		</g>
		<path class="st2" d="M1444.4,470l-36.8-6.6l-27.6,64.8c-6,4.5-78.9,41.1-78.9,41.1l0,0l-0.6,0.1l-10.5-2.3c0,0-20.7-1-21.4,1.2
			c-0.8,2.2,8.4,3.1,9.6,3.7c0.6,0.3,1.9,1,3,1.9c-3.5,1-9.2,2.5-12.2,2.1c-6.9-0.9-14.7-3.1-15.7-2.3c-1.1,0.9,8.9,5.6,16.1,7.2
			c3,0.7,4.9,0.1,6.2,0.5c1.7,0.6-1.6,1.5-6.5,0.4c-2.8-0.6-7.6-3-10.7-3.9c-5.1-1.5-8-1.6-8.5-1.3c-0.8,0.6,14,7.8,14,7.8
			s9.8,2.9,12.1,3.2c0,0,1.3,0.8-1.4,0.8c-1.1,0-8.5-0.8-8.5-0.8s-9.9-7.9-11.8-5.2c-0.6,0.8,10.2,8.9,10.2,8.9s11.2,2.2,13.8,2.6
			c5,0.7,15.6,1.1,32.6-7.4c14.2-4.3,85.7-30.2,88.7-37.4C1409.3,539.3,1444.9,469.8,1444.4,470z"/>
		<path class="st1" d="M1468.2,418.7c5,21.3-21.8,68.8-21.8,68.8s-38.2-18.6-44.9-26.6c0,0,26-46.1,27.7-48.9
			c3.5-6.1,18.2-12.7,25-11.9C1459.6,400.8,1468.2,418.7,1468.2,418.7z"/>
		<path class="st4" d="M1514.7,493.5c44.3-13.7,32.4-53.9,32.2-52.4c0.1-1.2,3.6-7.7,5.6-12.1c8.6-18,5.2-40.7-6.7-56.4
			c10.6-28.2-3.1-58.1-26.8-61.3c-7.4-19.2-25.1-41.1-60.1-33.9c-27.7,3.9-10.7,27.4-14.2,53.7c-1.8,13.4,2.8,36.9,10.8,47.6
			c-11.5,20.9-18.9,47.1-1.2,63C1445.6,479.5,1469.5,507.5,1514.7,493.5z"/>
		<path class="st8" d="M1442.7,330.3c0,5.8,2.1,10.5,4.7,10.5c2.6,0,4.7-4.7,4.7-10.5c0-5.8-2.1-10.5-4.7-10.5
			C1444.8,319.8,1442.7,324.5,1442.7,330.3z"/>
		<path class="st6" d="M1451.1,636.9h-0.2c-6,0-10.9,4.9-10.9,10.9V670c0,18.8-15.3,34.1-34.1,34.1h-17.8
			c-18.8,0-34.1-15.3-34.1-34.1v-22.1c0-7.9,6.4-14.3,14.3-14.3h74.7C1446.1,633.6,1449,634.8,1451.1,636.9z"/>
	</g>
</g>
</svg>
